<mxfile host="app.diagrams.net" modified="2024-01-18T15:06:12.512Z" agent="Mozilla/5.0 (Windows NT 10.0; Win64; x64) AppleWebKit/537.36 (KHTML, like Gecko) Chrome/120.0.0.0 Safari/537.36 Edg/120.0.0.0" etag="3GfgJ3P5e2ozNZZnyzDD" version="22.1.21" type="google" pages="4">
  <diagram name="Class Design" id="h3rDL9G815r0C6tyDtak">
    <mxGraphModel grid="1" page="1" gridSize="10" guides="1" tooltips="1" connect="1" arrows="1" fold="1" pageScale="1" pageWidth="850" pageHeight="1100" math="0" shadow="0">
      <root>
        <mxCell id="0" />
        <mxCell id="1" parent="0" />
        <mxCell id="PQ5x8KpuFJAVKFXu8_cv-15" value="Vending Machine" style="swimlane;fontStyle=0;childLayout=stackLayout;horizontal=1;startSize=30;horizontalStack=0;resizeParent=1;resizeParentMax=0;resizeLast=0;collapsible=1;marginBottom=0;whiteSpace=wrap;html=1;fillColor=#fad9d5;strokeColor=#ae4132;" vertex="1" parent="1">
          <mxGeometry x="950" y="400" width="420" height="940" as="geometry" />
        </mxCell>
        <mxCell id="DG3-miZzkFnGcA-WAoE2-10" value="- private static final MAIN_MENU_PURCHASE" style="text;strokeColor=#6c8ebf;fillColor=#dae8fc;align=left;verticalAlign=middle;spacingLeft=4;spacingRight=4;overflow=hidden;points=[[0,0.5],[1,0.5]];portConstraint=eastwest;rotatable=0;whiteSpace=wrap;html=1;" vertex="1" parent="PQ5x8KpuFJAVKFXu8_cv-15">
          <mxGeometry y="30" width="420" height="30" as="geometry" />
        </mxCell>
        <mxCell id="DG3-miZzkFnGcA-WAoE2-19" value="" style="endArrow=classic;html=1;rounded=0;fontSize=12;startSize=8;endSize=8;curved=1;fillColor=#ffe6cc;strokeColor=#d79b00;exitX=0;exitY=0.5;exitDx=0;exitDy=0;entryX=0;entryY=0.5;entryDx=0;entryDy=0;" edge="1" parent="PQ5x8KpuFJAVKFXu8_cv-15" source="DG3-miZzkFnGcA-WAoE2-11" target="DG3-miZzkFnGcA-WAoE2-13">
          <mxGeometry relative="1" as="geometry">
            <mxPoint x="-20" y="75" as="sourcePoint" />
            <mxPoint x="-10" y="160" as="targetPoint" />
            <Array as="points">
              <mxPoint x="-110" y="60" />
            </Array>
          </mxGeometry>
        </mxCell>
        <mxCell id="DG3-miZzkFnGcA-WAoE2-20" value="Held in" style="edgeLabel;resizable=0;html=1;align=center;verticalAlign=middle;fontSize=16;" connectable="0" vertex="1" parent="DG3-miZzkFnGcA-WAoE2-19">
          <mxGeometry relative="1" as="geometry">
            <mxPoint x="-5" y="14" as="offset" />
          </mxGeometry>
        </mxCell>
        <mxCell id="DG3-miZzkFnGcA-WAoE2-35" value="Held in" style="edgeLabel;resizable=0;html=1;align=center;verticalAlign=middle;fontSize=16;" connectable="0" vertex="1" parent="DG3-miZzkFnGcA-WAoE2-19">
          <mxGeometry relative="1" as="geometry">
            <mxPoint x="1" y="134" as="offset" />
          </mxGeometry>
        </mxCell>
        <mxCell id="DG3-miZzkFnGcA-WAoE2-11" value="- private static final MAIN_MENU_OPTION_EXIT" style="text;strokeColor=#6c8ebf;fillColor=#dae8fc;align=left;verticalAlign=middle;spacingLeft=4;spacingRight=4;overflow=hidden;points=[[0,0.5],[1,0.5]];portConstraint=eastwest;rotatable=0;whiteSpace=wrap;html=1;" vertex="1" parent="PQ5x8KpuFJAVKFXu8_cv-15">
          <mxGeometry y="60" width="420" height="30" as="geometry" />
        </mxCell>
        <mxCell id="PQ5x8KpuFJAVKFXu8_cv-16" value="- private static final MAIN_MENU_OPTION_DISPLAY_ITEMS" style="text;strokeColor=#6c8ebf;fillColor=#dae8fc;align=left;verticalAlign=middle;spacingLeft=4;spacingRight=4;overflow=hidden;points=[[0,0.5],[1,0.5]];portConstraint=eastwest;rotatable=0;whiteSpace=wrap;html=1;" vertex="1" parent="PQ5x8KpuFJAVKFXu8_cv-15">
          <mxGeometry y="90" width="420" height="30" as="geometry" />
        </mxCell>
        <mxCell id="nSJEtF5w1V3WeCdHhVMz-7" value="" style="endArrow=classic;html=1;rounded=0;fontSize=12;startSize=8;endSize=8;curved=1;fillColor=#ffe6cc;strokeColor=#d79b00;exitX=0;exitY=0.5;exitDx=0;exitDy=0;entryX=0;entryY=0.5;entryDx=0;entryDy=0;" edge="1" parent="PQ5x8KpuFJAVKFXu8_cv-15" source="nSJEtF5w1V3WeCdHhVMz-1" target="DG3-miZzkFnGcA-WAoE2-13">
          <mxGeometry relative="1" as="geometry">
            <mxPoint x="-30" y="145" as="sourcePoint" />
            <mxPoint x="-30" y="205" as="targetPoint" />
            <Array as="points">
              <mxPoint x="-60" y="80" />
            </Array>
          </mxGeometry>
        </mxCell>
        <mxCell id="nSJEtF5w1V3WeCdHhVMz-1" value="- private static final MAIN_MENU_OPTION_SECRET_SALES_REPORT" style="text;strokeColor=#6c8ebf;fillColor=#dae8fc;align=left;verticalAlign=middle;spacingLeft=4;spacingRight=4;overflow=hidden;points=[[0,0.5],[1,0.5]];portConstraint=eastwest;rotatable=0;whiteSpace=wrap;html=1;" vertex="1" parent="PQ5x8KpuFJAVKFXu8_cv-15">
          <mxGeometry y="120" width="420" height="30" as="geometry" />
        </mxCell>
        <mxCell id="DG3-miZzkFnGcA-WAoE2-13" value="- private static final MAIN_MENU_OPTIONS" style="text;strokeColor=#6c8ebf;fillColor=#dae8fc;align=left;verticalAlign=middle;spacingLeft=4;spacingRight=4;overflow=hidden;points=[[0,0.5],[1,0.5]];portConstraint=eastwest;rotatable=0;whiteSpace=wrap;html=1;" vertex="1" parent="PQ5x8KpuFJAVKFXu8_cv-15">
          <mxGeometry y="150" width="420" height="30" as="geometry" />
        </mxCell>
        <mxCell id="DG3-miZzkFnGcA-WAoE2-14" value="- private static final PURCHASE_MENU_OPTION_FEED_MONEY" style="text;strokeColor=#6c8ebf;fillColor=#dae8fc;align=left;verticalAlign=middle;spacingLeft=4;spacingRight=4;overflow=hidden;points=[[0,0.5],[1,0.5]];portConstraint=eastwest;rotatable=0;whiteSpace=wrap;html=1;" vertex="1" parent="PQ5x8KpuFJAVKFXu8_cv-15">
          <mxGeometry y="180" width="420" height="30" as="geometry" />
        </mxCell>
        <mxCell id="DG3-miZzkFnGcA-WAoE2-26" value="- private static final PURCHASE_MENU_OPTION_SELECT_PRODUCT" style="text;strokeColor=#6c8ebf;fillColor=#dae8fc;align=left;verticalAlign=middle;spacingLeft=4;spacingRight=4;overflow=hidden;points=[[0,0.5],[1,0.5]];portConstraint=eastwest;rotatable=0;whiteSpace=wrap;html=1;" vertex="1" parent="PQ5x8KpuFJAVKFXu8_cv-15">
          <mxGeometry y="210" width="420" height="30" as="geometry" />
        </mxCell>
        <mxCell id="DG3-miZzkFnGcA-WAoE2-28" value="- private static final PURCHASE_MENU_OPTION_FINISH_TRANSACTION" style="text;strokeColor=#6c8ebf;fillColor=#dae8fc;align=left;verticalAlign=middle;spacingLeft=4;spacingRight=4;overflow=hidden;points=[[0,0.5],[1,0.5]];portConstraint=eastwest;rotatable=0;whiteSpace=wrap;html=1;" vertex="1" parent="PQ5x8KpuFJAVKFXu8_cv-15">
          <mxGeometry y="240" width="420" height="30" as="geometry" />
        </mxCell>
        <mxCell id="DG3-miZzkFnGcA-WAoE2-30" value="- private static final PURCHASE_MENU_OPTIONS" style="text;strokeColor=#6c8ebf;fillColor=#dae8fc;align=left;verticalAlign=middle;spacingLeft=4;spacingRight=4;overflow=hidden;points=[[0,0.5],[1,0.5]];portConstraint=eastwest;rotatable=0;whiteSpace=wrap;html=1;" vertex="1" parent="PQ5x8KpuFJAVKFXu8_cv-15">
          <mxGeometry y="270" width="420" height="30" as="geometry" />
        </mxCell>
        <mxCell id="DG3-miZzkFnGcA-WAoE2-31" value="- private Menu menuDisplay" style="text;strokeColor=#6c8ebf;fillColor=#dae8fc;align=left;verticalAlign=middle;spacingLeft=4;spacingRight=4;overflow=hidden;points=[[0,0.5],[1,0.5]];portConstraint=eastwest;rotatable=0;whiteSpace=wrap;html=1;" vertex="1" parent="PQ5x8KpuFJAVKFXu8_cv-15">
          <mxGeometry y="300" width="420" height="30" as="geometry" />
        </mxCell>
        <mxCell id="DG3-miZzkFnGcA-WAoE2-29" value="- private BigDecimal currentWorkingBalance;" style="text;strokeColor=#6c8ebf;fillColor=#dae8fc;align=left;verticalAlign=middle;spacingLeft=4;spacingRight=4;overflow=hidden;points=[[0,0.5],[1,0.5]];portConstraint=eastwest;rotatable=0;whiteSpace=wrap;html=1;" vertex="1" parent="PQ5x8KpuFJAVKFXu8_cv-15">
          <mxGeometry y="330" width="420" height="30" as="geometry" />
        </mxCell>
        <mxCell id="DG3-miZzkFnGcA-WAoE2-27" value="- private BigDecimal netSales;" style="text;strokeColor=#6c8ebf;fillColor=#dae8fc;align=left;verticalAlign=middle;spacingLeft=4;spacingRight=4;overflow=hidden;points=[[0,0.5],[1,0.5]];portConstraint=eastwest;rotatable=0;whiteSpace=wrap;html=1;" vertex="1" parent="PQ5x8KpuFJAVKFXu8_cv-15">
          <mxGeometry y="360" width="420" height="30" as="geometry" />
        </mxCell>
        <mxCell id="DG3-miZzkFnGcA-WAoE2-12" value="- private Inventory vendingMachineInventory;" style="text;strokeColor=#6c8ebf;fillColor=#dae8fc;align=left;verticalAlign=middle;spacingLeft=4;spacingRight=4;overflow=hidden;points=[[0,0.5],[1,0.5]];portConstraint=eastwest;rotatable=0;whiteSpace=wrap;html=1;" vertex="1" parent="PQ5x8KpuFJAVKFXu8_cv-15">
          <mxGeometry y="390" width="420" height="30" as="geometry" />
        </mxCell>
        <mxCell id="wREU499mOBv9_BJN5Bkb-13" value="- private Log sessionLog" style="text;strokeColor=#6c8ebf;fillColor=#dae8fc;align=left;verticalAlign=middle;spacingLeft=4;spacingRight=4;overflow=hidden;points=[[0,0.5],[1,0.5]];portConstraint=eastwest;rotatable=0;whiteSpace=wrap;html=1;" vertex="1" parent="PQ5x8KpuFJAVKFXu8_cv-15">
          <mxGeometry y="420" width="420" height="30" as="geometry" />
        </mxCell>
        <mxCell id="wREU499mOBv9_BJN5Bkb-42" value="- private Money moneyReturn" style="text;strokeColor=#6c8ebf;fillColor=#dae8fc;align=left;verticalAlign=middle;spacingLeft=4;spacingRight=4;overflow=hidden;points=[[0,0.5],[1,0.5]];portConstraint=eastwest;rotatable=0;whiteSpace=wrap;html=1;" vertex="1" parent="PQ5x8KpuFJAVKFXu8_cv-15">
          <mxGeometry y="450" width="420" height="30" as="geometry" />
        </mxCell>
        <mxCell id="PQ5x8KpuFJAVKFXu8_cv-19" value="public VendingMachine()" style="text;strokeColor=#23445d;fillColor=#bac8d3;align=left;verticalAlign=middle;spacingLeft=4;spacingRight=4;overflow=hidden;points=[[0,0.5],[1,0.5]];portConstraint=eastwest;rotatable=0;whiteSpace=wrap;html=1;" vertex="1" parent="PQ5x8KpuFJAVKFXu8_cv-15">
          <mxGeometry y="480" width="420" height="30" as="geometry" />
        </mxCell>
        <mxCell id="wREU499mOBv9_BJN5Bkb-62" value="- public void setCurrentWorkingBalance()" style="text;strokeColor=#82b366;fillColor=#d5e8d4;align=left;verticalAlign=middle;spacingLeft=4;spacingRight=4;overflow=hidden;points=[[0,0.5],[1,0.5]];portConstraint=eastwest;rotatable=0;whiteSpace=wrap;html=1;" vertex="1" parent="PQ5x8KpuFJAVKFXu8_cv-15">
          <mxGeometry y="510" width="420" height="30" as="geometry" />
        </mxCell>
        <mxCell id="wREU499mOBv9_BJN5Bkb-43" value="- public BigDecimal getNetSales()" style="text;strokeColor=#82b366;fillColor=#d5e8d4;align=left;verticalAlign=middle;spacingLeft=4;spacingRight=4;overflow=hidden;points=[[0,0.5],[1,0.5]];portConstraint=eastwest;rotatable=0;whiteSpace=wrap;html=1;" vertex="1" parent="PQ5x8KpuFJAVKFXu8_cv-15">
          <mxGeometry y="540" width="420" height="30" as="geometry" />
        </mxCell>
        <mxCell id="PQ5x8KpuFJAVKFXu8_cv-23" value="- public&amp;nbsp; BigDecimal getCurrentWorkingBalance()" style="text;strokeColor=#82b366;fillColor=#d5e8d4;align=left;verticalAlign=middle;spacingLeft=4;spacingRight=4;overflow=hidden;points=[[0,0.5],[1,0.5]];portConstraint=eastwest;rotatable=0;whiteSpace=wrap;html=1;" vertex="1" parent="PQ5x8KpuFJAVKFXu8_cv-15">
          <mxGeometry y="570" width="420" height="30" as="geometry" />
        </mxCell>
        <mxCell id="3dpSUaaFwkMxnrKQ9X9A-5" value="- public void run()" style="text;strokeColor=#82b366;fillColor=#d5e8d4;align=left;verticalAlign=middle;spacingLeft=4;spacingRight=4;overflow=hidden;points=[[0,0.5],[1,0.5]];portConstraint=eastwest;rotatable=0;whiteSpace=wrap;html=1;" vertex="1" parent="PQ5x8KpuFJAVKFXu8_cv-15">
          <mxGeometry y="600" width="420" height="30" as="geometry" />
        </mxCell>
        <mxCell id="PQ5x8KpuFJAVKFXu8_cv-337" value="- public static void main()" style="text;strokeColor=#82b366;fillColor=#d5e8d4;align=left;verticalAlign=middle;spacingLeft=4;spacingRight=4;overflow=hidden;points=[[0,0.5],[1,0.5]];portConstraint=eastwest;rotatable=0;whiteSpace=wrap;html=1;gradientColor=#97d077;" vertex="1" parent="PQ5x8KpuFJAVKFXu8_cv-15">
          <mxGeometry y="630" width="420" height="30" as="geometry" />
        </mxCell>
        <mxCell id="wREU499mOBv9_BJN5Bkb-63" value="- public void displayItems()" style="text;strokeColor=#82b366;fillColor=#d5e8d4;align=left;verticalAlign=middle;spacingLeft=4;spacingRight=4;overflow=hidden;points=[[0,0.5],[1,0.5]];portConstraint=eastwest;rotatable=0;whiteSpace=wrap;html=1;" vertex="1" parent="PQ5x8KpuFJAVKFXu8_cv-15">
          <mxGeometry y="660" width="420" height="30" as="geometry" />
        </mxCell>
        <mxCell id="wREU499mOBv9_BJN5Bkb-97" value="- public void createSalesReport()" style="text;strokeColor=#82b366;fillColor=#d5e8d4;align=left;verticalAlign=middle;spacingLeft=4;spacingRight=4;overflow=hidden;points=[[0,0.5],[1,0.5]];portConstraint=eastwest;rotatable=0;whiteSpace=wrap;html=1;" vertex="1" parent="PQ5x8KpuFJAVKFXu8_cv-15">
          <mxGeometry y="690" width="420" height="30" as="geometry" />
        </mxCell>
        <mxCell id="wREU499mOBv9_BJN5Bkb-98" value="- public void exitVendingMachineProgram()" style="text;strokeColor=#82b366;fillColor=#d5e8d4;align=left;verticalAlign=middle;spacingLeft=4;spacingRight=4;overflow=hidden;points=[[0,0.5],[1,0.5]];portConstraint=eastwest;rotatable=0;whiteSpace=wrap;html=1;" vertex="1" parent="PQ5x8KpuFJAVKFXu8_cv-15">
          <mxGeometry y="720" width="420" height="30" as="geometry" />
        </mxCell>
        <mxCell id="wREU499mOBv9_BJN5Bkb-99" value="- public void performPurchaseProcess()" style="text;strokeColor=#82b366;fillColor=#d5e8d4;align=left;verticalAlign=middle;spacingLeft=4;spacingRight=4;overflow=hidden;points=[[0,0.5],[1,0.5]];portConstraint=eastwest;rotatable=0;whiteSpace=wrap;html=1;" vertex="1" parent="PQ5x8KpuFJAVKFXu8_cv-15">
          <mxGeometry y="750" width="420" height="30" as="geometry" />
        </mxCell>
        <mxCell id="wREU499mOBv9_BJN5Bkb-44" value="- public BigDecimal feedMoney()" style="text;strokeColor=#82b366;fillColor=#d5e8d4;align=left;verticalAlign=middle;spacingLeft=4;spacingRight=4;overflow=hidden;points=[[0,0.5],[1,0.5]];portConstraint=eastwest;rotatable=0;whiteSpace=wrap;html=1;" vertex="1" parent="PQ5x8KpuFJAVKFXu8_cv-15">
          <mxGeometry y="780" width="420" height="30" as="geometry" />
        </mxCell>
        <mxCell id="wREU499mOBv9_BJN5Bkb-100" value="- public void completeSaleOfItem()" style="text;strokeColor=#82b366;fillColor=#d5e8d4;align=left;verticalAlign=middle;spacingLeft=4;spacingRight=4;overflow=hidden;points=[[0,0.5],[1,0.5]];portConstraint=eastwest;rotatable=0;whiteSpace=wrap;html=1;" vertex="1" parent="PQ5x8KpuFJAVKFXu8_cv-15">
          <mxGeometry y="810" width="420" height="30" as="geometry" />
        </mxCell>
        <mxCell id="PQ5x8KpuFJAVKFXu8_cv-384" value="- public void dispenseItem()" style="text;strokeColor=#82b366;fillColor=#d5e8d4;align=left;verticalAlign=middle;spacingLeft=4;spacingRight=4;overflow=hidden;points=[[0,0.5],[1,0.5]];portConstraint=eastwest;rotatable=0;whiteSpace=wrap;html=1;" vertex="1" parent="PQ5x8KpuFJAVKFXu8_cv-15">
          <mxGeometry y="840" width="420" height="30" as="geometry" />
        </mxCell>
        <mxCell id="PQ5x8KpuFJAVKFXu8_cv-25" value="- public BigDecimal returnChange()" style="text;strokeColor=#82b366;fillColor=#d5e8d4;align=left;verticalAlign=middle;spacingLeft=4;spacingRight=4;overflow=hidden;points=[[0,0.5],[1,0.5]];portConstraint=eastwest;rotatable=0;whiteSpace=wrap;html=1;" vertex="1" parent="PQ5x8KpuFJAVKFXu8_cv-15">
          <mxGeometry y="870" width="420" height="30" as="geometry" />
        </mxCell>
        <mxCell id="1ARiTfjiCE4TvbWLO5M8-30" value="Jason&lt;br&gt;David" style="text;html=1;align=center;verticalAlign=middle;resizable=0;points=[];autosize=1;strokeColor=#314354;fillColor=#647687;strokeWidth=8;fontColor=#ffffff;" vertex="1" parent="PQ5x8KpuFJAVKFXu8_cv-15">
          <mxGeometry y="900" width="420" height="40" as="geometry" />
        </mxCell>
        <mxCell id="DG3-miZzkFnGcA-WAoE2-17" value="" style="endArrow=classic;html=1;rounded=0;fontSize=12;startSize=8;endSize=8;curved=1;fillColor=#ffe6cc;strokeColor=#d79b00;exitX=0;exitY=0.5;exitDx=0;exitDy=0;entryX=0;entryY=0.5;entryDx=0;entryDy=0;" edge="1" parent="PQ5x8KpuFJAVKFXu8_cv-15" source="DG3-miZzkFnGcA-WAoE2-10" target="DG3-miZzkFnGcA-WAoE2-13">
          <mxGeometry relative="1" as="geometry">
            <mxPoint x="-30" y="50" as="sourcePoint" />
            <mxPoint x="-10" y="130" as="targetPoint" />
            <Array as="points">
              <mxPoint x="-130" y="75" />
            </Array>
          </mxGeometry>
        </mxCell>
        <mxCell id="DG3-miZzkFnGcA-WAoE2-33" value="" style="endArrow=classic;html=1;rounded=0;fontSize=12;startSize=8;endSize=8;curved=1;fillColor=#ffe6cc;strokeColor=#d79b00;exitX=0;exitY=0.5;exitDx=0;exitDy=0;entryX=0;entryY=0.5;entryDx=0;entryDy=0;" edge="1" parent="PQ5x8KpuFJAVKFXu8_cv-15" source="DG3-miZzkFnGcA-WAoE2-28" target="DG3-miZzkFnGcA-WAoE2-30">
          <mxGeometry relative="1" as="geometry">
            <mxPoint x="-50" y="200" as="sourcePoint" />
            <mxPoint y="260" as="targetPoint" />
            <Array as="points">
              <mxPoint x="-50" y="225" />
            </Array>
          </mxGeometry>
        </mxCell>
        <mxCell id="DG3-miZzkFnGcA-WAoE2-32" value="" style="endArrow=classic;html=1;rounded=0;fontSize=12;startSize=8;endSize=8;curved=1;fillColor=#ffe6cc;strokeColor=#d79b00;exitX=0;exitY=0.5;exitDx=0;exitDy=0;entryX=0;entryY=0.5;entryDx=0;entryDy=0;" edge="1" parent="PQ5x8KpuFJAVKFXu8_cv-15" source="DG3-miZzkFnGcA-WAoE2-26" target="DG3-miZzkFnGcA-WAoE2-30">
          <mxGeometry relative="1" as="geometry">
            <mxPoint x="-50" y="140" as="sourcePoint" />
            <mxPoint x="-50" y="230" as="targetPoint" />
            <Array as="points">
              <mxPoint x="-80" y="210" />
            </Array>
          </mxGeometry>
        </mxCell>
        <mxCell id="DG3-miZzkFnGcA-WAoE2-34" value="" style="endArrow=classic;html=1;rounded=0;fontSize=12;startSize=8;endSize=8;curved=1;fillColor=#ffe6cc;strokeColor=#d79b00;exitX=0;exitY=0.5;exitDx=0;exitDy=0;entryX=0;entryY=0.5;entryDx=0;entryDy=0;" edge="1" parent="PQ5x8KpuFJAVKFXu8_cv-15" source="DG3-miZzkFnGcA-WAoE2-14" target="DG3-miZzkFnGcA-WAoE2-30">
          <mxGeometry relative="1" as="geometry">
            <mxPoint x="-30" y="165" as="sourcePoint" />
            <mxPoint y="260" as="targetPoint" />
            <Array as="points">
              <mxPoint x="-130" y="200" />
            </Array>
          </mxGeometry>
        </mxCell>
        <mxCell id="nSJEtF5w1V3WeCdHhVMz-4" value="" style="endArrow=classic;html=1;rounded=0;fontSize=12;startSize=8;endSize=8;curved=1;fillColor=#ffe6cc;strokeColor=#d79b00;exitX=0;exitY=0.5;exitDx=0;exitDy=0;entryX=0;entryY=0.5;entryDx=0;entryDy=0;" edge="1" parent="PQ5x8KpuFJAVKFXu8_cv-15" source="PQ5x8KpuFJAVKFXu8_cv-16" target="DG3-miZzkFnGcA-WAoE2-13">
          <mxGeometry relative="1" as="geometry">
            <mxPoint x="-10" y="97.5" as="sourcePoint" />
            <mxPoint x="-10" y="187.5" as="targetPoint" />
            <Array as="points">
              <mxPoint x="-100" y="50" />
            </Array>
          </mxGeometry>
        </mxCell>
        <mxCell id="PQ5x8KpuFJAVKFXu8_cv-409" style="edgeStyle=none;curved=1;rounded=0;orthogonalLoop=1;jettySize=auto;html=1;fontSize=12;startSize=8;endSize=8;" edge="1" parent="1" source="PQ5x8KpuFJAVKFXu8_cv-27">
          <mxGeometry relative="1" as="geometry">
            <mxPoint x="380" y="1837.5" as="targetPoint" />
          </mxGeometry>
        </mxCell>
        <mxCell id="PQ5x8KpuFJAVKFXu8_cv-410" style="edgeStyle=none;curved=1;rounded=0;orthogonalLoop=1;jettySize=auto;html=1;fontSize=12;startSize=8;endSize=8;" edge="1" parent="1" source="PQ5x8KpuFJAVKFXu8_cv-27">
          <mxGeometry relative="1" as="geometry">
            <mxPoint x="570" y="1837.5" as="targetPoint" />
          </mxGeometry>
        </mxCell>
        <mxCell id="PQ5x8KpuFJAVKFXu8_cv-27" value="Item (Abstract)" style="swimlane;fontStyle=0;childLayout=stackLayout;horizontal=1;startSize=30;horizontalStack=0;resizeParent=1;resizeParentMax=0;resizeLast=0;collapsible=1;marginBottom=0;whiteSpace=wrap;html=1;fillColor=#f8cecc;strokeColor=#b85450;" vertex="1" parent="1">
          <mxGeometry x="350" y="1380" width="230" height="460" as="geometry" />
        </mxCell>
        <mxCell id="PQ5x8KpuFJAVKFXu8_cv-28" value="- private String productName" style="text;strokeColor=#6c8ebf;fillColor=#dae8fc;align=left;verticalAlign=middle;spacingLeft=4;spacingRight=4;overflow=hidden;points=[[0,0.5],[1,0.5]];portConstraint=eastwest;rotatable=0;whiteSpace=wrap;html=1;" vertex="1" parent="PQ5x8KpuFJAVKFXu8_cv-27">
          <mxGeometry y="30" width="230" height="30" as="geometry" />
        </mxCell>
        <mxCell id="PQ5x8KpuFJAVKFXu8_cv-29" value="- private int amount = 5" style="text;strokeColor=#6c8ebf;fillColor=#dae8fc;align=left;verticalAlign=middle;spacingLeft=4;spacingRight=4;overflow=hidden;points=[[0,0.5],[1,0.5]];portConstraint=eastwest;rotatable=0;whiteSpace=wrap;html=1;" vertex="1" parent="PQ5x8KpuFJAVKFXu8_cv-27">
          <mxGeometry y="60" width="230" height="30" as="geometry" />
        </mxCell>
        <mxCell id="PQ5x8KpuFJAVKFXu8_cv-374" value="- private BigDecimal price" style="text;strokeColor=#6c8ebf;fillColor=#dae8fc;align=left;verticalAlign=middle;spacingLeft=4;spacingRight=4;overflow=hidden;points=[[0,0.5],[1,0.5]];portConstraint=eastwest;rotatable=0;whiteSpace=wrap;html=1;" vertex="1" parent="PQ5x8KpuFJAVKFXu8_cv-27">
          <mxGeometry y="90" width="230" height="40" as="geometry" />
        </mxCell>
        <mxCell id="PQ5x8KpuFJAVKFXu8_cv-79" value="- private String slot" style="text;strokeColor=#6c8ebf;fillColor=#dae8fc;align=left;verticalAlign=middle;spacingLeft=4;spacingRight=4;overflow=hidden;points=[[0,0.5],[1,0.5]];portConstraint=eastwest;rotatable=0;whiteSpace=wrap;html=1;" vertex="1" parent="PQ5x8KpuFJAVKFXu8_cv-27">
          <mxGeometry y="130" width="230" height="40" as="geometry" />
        </mxCell>
        <mxCell id="PQ5x8KpuFJAVKFXu8_cv-31" value="- public Item()" style="text;strokeColor=#23445d;fillColor=#bac8d3;align=left;verticalAlign=middle;spacingLeft=4;spacingRight=4;overflow=hidden;points=[[0,0.5],[1,0.5]];portConstraint=eastwest;rotatable=0;whiteSpace=wrap;html=1;" vertex="1" parent="PQ5x8KpuFJAVKFXu8_cv-27">
          <mxGeometry y="170" width="230" height="30" as="geometry" />
        </mxCell>
        <mxCell id="PQ5x8KpuFJAVKFXu8_cv-32" value="- public String getProductName()" style="text;strokeColor=#82b366;fillColor=#d5e8d4;align=left;verticalAlign=middle;spacingLeft=4;spacingRight=4;overflow=hidden;points=[[0,0.5],[1,0.5]];portConstraint=eastwest;rotatable=0;whiteSpace=wrap;html=1;" vertex="1" parent="PQ5x8KpuFJAVKFXu8_cv-27">
          <mxGeometry y="200" width="230" height="30" as="geometry" />
        </mxCell>
        <mxCell id="PQ5x8KpuFJAVKFXu8_cv-34" value="- public int getAmount()" style="text;strokeColor=#82b366;fillColor=#d5e8d4;align=left;verticalAlign=middle;spacingLeft=4;spacingRight=4;overflow=hidden;points=[[0,0.5],[1,0.5]];portConstraint=eastwest;rotatable=0;whiteSpace=wrap;html=1;" vertex="1" parent="PQ5x8KpuFJAVKFXu8_cv-27">
          <mxGeometry y="230" width="230" height="30" as="geometry" />
        </mxCell>
        <mxCell id="PQ5x8KpuFJAVKFXu8_cv-74" value="- public abstract displayMessage()" style="text;strokeColor=#82b366;fillColor=#d5e8d4;align=left;verticalAlign=middle;spacingLeft=4;spacingRight=4;overflow=hidden;points=[[0,0.5],[1,0.5]];portConstraint=eastwest;rotatable=0;whiteSpace=wrap;html=1;" vertex="1" parent="PQ5x8KpuFJAVKFXu8_cv-27">
          <mxGeometry y="260" width="230" height="40" as="geometry" />
        </mxCell>
        <mxCell id="PQ5x8KpuFJAVKFXu8_cv-80" value="- public BigDecimal getPrice" style="text;strokeColor=#82b366;fillColor=#d5e8d4;align=left;verticalAlign=middle;spacingLeft=4;spacingRight=4;overflow=hidden;points=[[0,0.5],[1,0.5]];portConstraint=eastwest;rotatable=0;whiteSpace=wrap;html=1;" vertex="1" parent="PQ5x8KpuFJAVKFXu8_cv-27">
          <mxGeometry y="300" width="230" height="40" as="geometry" />
        </mxCell>
        <mxCell id="PQ5x8KpuFJAVKFXu8_cv-375" value="- public getSlot()" style="text;strokeColor=#82b366;fillColor=#d5e8d4;align=left;verticalAlign=middle;spacingLeft=4;spacingRight=4;overflow=hidden;points=[[0,0.5],[1,0.5]];portConstraint=eastwest;rotatable=0;whiteSpace=wrap;html=1;" vertex="1" parent="PQ5x8KpuFJAVKFXu8_cv-27">
          <mxGeometry y="340" width="230" height="40" as="geometry" />
        </mxCell>
        <mxCell id="1ARiTfjiCE4TvbWLO5M8-10" value="- public void decrementItemCount()" style="text;strokeColor=#82b366;fillColor=#d5e8d4;align=left;verticalAlign=middle;spacingLeft=4;spacingRight=4;overflow=hidden;points=[[0,0.5],[1,0.5]];portConstraint=eastwest;rotatable=0;whiteSpace=wrap;html=1;" vertex="1" parent="PQ5x8KpuFJAVKFXu8_cv-27">
          <mxGeometry y="380" width="230" height="40" as="geometry" />
        </mxCell>
        <mxCell id="1ARiTfjiCE4TvbWLO5M8-31" value="Kaley&lt;br&gt;Lex" style="text;html=1;align=center;verticalAlign=middle;resizable=0;points=[];autosize=1;strokeColor=#FFD966;fillColor=#76608a;fontColor=#ffffff;strokeWidth=8;" vertex="1" parent="PQ5x8KpuFJAVKFXu8_cv-27">
          <mxGeometry y="420" width="230" height="40" as="geometry" />
        </mxCell>
        <mxCell id="PQ5x8KpuFJAVKFXu8_cv-39" value="Money" style="swimlane;fontStyle=0;childLayout=stackLayout;horizontal=1;startSize=30;horizontalStack=0;resizeParent=1;resizeParentMax=0;resizeLast=0;collapsible=1;marginBottom=0;whiteSpace=wrap;html=1;fillColor=#f8cecc;strokeColor=#1EC9EB;strokeWidth=5;" vertex="1" parent="1">
          <mxGeometry x="1560" y="1600" width="250" height="190" as="geometry" />
        </mxCell>
        <mxCell id="PQ5x8KpuFJAVKFXu8_cv-40" value="- private Map &amp;lt; String, BigDecimal&amp;gt;&amp;nbsp; coin" style="text;strokeColor=#6c8ebf;fillColor=#dae8fc;align=left;verticalAlign=middle;spacingLeft=4;spacingRight=4;overflow=hidden;points=[[0,0.5],[1,0.5]];portConstraint=eastwest;rotatable=0;whiteSpace=wrap;html=1;" vertex="1" parent="PQ5x8KpuFJAVKFXu8_cv-39">
          <mxGeometry y="30" width="250" height="30" as="geometry" />
        </mxCell>
        <mxCell id="PQ5x8KpuFJAVKFXu8_cv-42" value="- public Money()" style="text;strokeColor=#23445d;fillColor=#bac8d3;align=left;verticalAlign=middle;spacingLeft=4;spacingRight=4;overflow=hidden;points=[[0,0.5],[1,0.5]];portConstraint=eastwest;rotatable=0;whiteSpace=wrap;html=1;" vertex="1" parent="PQ5x8KpuFJAVKFXu8_cv-39">
          <mxGeometry y="60" width="250" height="40" as="geometry" />
        </mxCell>
        <mxCell id="PQ5x8KpuFJAVKFXu8_cv-44" value="- public BigDecimal getValue():" style="text;strokeColor=#82b366;fillColor=#d5e8d4;align=left;verticalAlign=middle;spacingLeft=4;spacingRight=4;overflow=hidden;points=[[0,0.5],[1,0.5]];portConstraint=eastwest;rotatable=0;whiteSpace=wrap;html=1;" vertex="1" parent="PQ5x8KpuFJAVKFXu8_cv-39">
          <mxGeometry y="100" width="250" height="30" as="geometry" />
        </mxCell>
        <mxCell id="PQ5x8KpuFJAVKFXu8_cv-45" value="- getCoin()" style="text;strokeColor=#82b366;fillColor=#d5e8d4;align=left;verticalAlign=middle;spacingLeft=4;spacingRight=4;overflow=hidden;points=[[0,0.5],[1,0.5]];portConstraint=eastwest;rotatable=0;whiteSpace=wrap;html=1;" vertex="1" parent="PQ5x8KpuFJAVKFXu8_cv-39">
          <mxGeometry y="130" width="250" height="30" as="geometry" />
        </mxCell>
        <mxCell id="3dpSUaaFwkMxnrKQ9X9A-2" style="edgeStyle=none;curved=1;rounded=0;orthogonalLoop=1;jettySize=auto;html=1;exitX=0.5;exitY=1;exitDx=0;exitDy=0;fontSize=12;startSize=8;endSize=8;" edge="1" parent="PQ5x8KpuFJAVKFXu8_cv-39" source="j89bMswftUTxfXiOQWYd-4" target="PQ5x8KpuFJAVKFXu8_cv-45">
          <mxGeometry relative="1" as="geometry" />
        </mxCell>
        <mxCell id="j89bMswftUTxfXiOQWYd-4" value="&lt;span style=&quot;background-color: rgb(77, 153, 0);&quot;&gt;David&lt;/span&gt;" style="text;html=1;strokeColor=#3A5431;fillColor=#6d8764;align=center;verticalAlign=middle;whiteSpace=wrap;rounded=0;fontColor=#ffffff;" vertex="1" parent="PQ5x8KpuFJAVKFXu8_cv-39">
          <mxGeometry y="160" width="250" height="30" as="geometry" />
        </mxCell>
        <mxCell id="3dpSUaaFwkMxnrKQ9X9A-4" value="" style="edgeStyle=none;curved=1;rounded=0;orthogonalLoop=1;jettySize=auto;html=1;exitX=0.5;exitY=1;exitDx=0;exitDy=0;fontSize=12;startSize=8;endSize=8;" edge="1" parent="PQ5x8KpuFJAVKFXu8_cv-39" source="PQ5x8KpuFJAVKFXu8_cv-39" target="j89bMswftUTxfXiOQWYd-4">
          <mxGeometry relative="1" as="geometry">
            <mxPoint x="965" y="710" as="sourcePoint" />
            <mxPoint x="965" y="710" as="targetPoint" />
          </mxGeometry>
        </mxCell>
        <mxCell id="PQ5x8KpuFJAVKFXu8_cv-141" value="Color Key" style="swimlane;fontStyle=0;childLayout=stackLayout;horizontal=1;startSize=30;horizontalStack=0;resizeParent=1;resizeParentMax=0;resizeLast=0;collapsible=1;marginBottom=0;whiteSpace=wrap;html=1;" vertex="1" parent="1">
          <mxGeometry x="100" y="100" width="140" height="150" as="geometry" />
        </mxCell>
        <mxCell id="PQ5x8KpuFJAVKFXu8_cv-142" value="Variables" style="text;strokeColor=#6c8ebf;fillColor=#dae8fc;align=left;verticalAlign=middle;spacingLeft=4;spacingRight=4;overflow=hidden;points=[[0,0.5],[1,0.5]];portConstraint=eastwest;rotatable=0;whiteSpace=wrap;html=1;" vertex="1" parent="PQ5x8KpuFJAVKFXu8_cv-141">
          <mxGeometry y="30" width="140" height="30" as="geometry" />
        </mxCell>
        <mxCell id="PQ5x8KpuFJAVKFXu8_cv-146" value="Methods" style="text;strokeColor=#82b366;fillColor=#d5e8d4;align=left;verticalAlign=middle;spacingLeft=4;spacingRight=4;overflow=hidden;points=[[0,0.5],[1,0.5]];portConstraint=eastwest;rotatable=0;whiteSpace=wrap;html=1;" vertex="1" parent="PQ5x8KpuFJAVKFXu8_cv-141">
          <mxGeometry y="60" width="140" height="30" as="geometry" />
        </mxCell>
        <mxCell id="PQ5x8KpuFJAVKFXu8_cv-372" value="Constructors" style="text;strokeColor=#23445d;fillColor=#bac8d3;align=left;verticalAlign=middle;spacingLeft=4;spacingRight=4;overflow=hidden;points=[[0,0.5],[1,0.5]];portConstraint=eastwest;rotatable=0;whiteSpace=wrap;html=1;" vertex="1" parent="PQ5x8KpuFJAVKFXu8_cv-141">
          <mxGeometry y="90" width="140" height="30" as="geometry" />
        </mxCell>
        <mxCell id="fBzKWmCnzZfk1iBpAwAX-18" value="Tests" style="text;strokeColor=#d6b656;fillColor=#fff2cc;align=left;verticalAlign=middle;spacingLeft=4;spacingRight=4;overflow=hidden;points=[[0,0.5],[1,0.5]];portConstraint=eastwest;rotatable=0;whiteSpace=wrap;html=1;" vertex="1" parent="PQ5x8KpuFJAVKFXu8_cv-141">
          <mxGeometry y="120" width="140" height="30" as="geometry" />
        </mxCell>
        <mxCell id="PQ5x8KpuFJAVKFXu8_cv-338" value="Chips" style="swimlane;fontStyle=0;childLayout=stackLayout;horizontal=1;startSize=30;horizontalStack=0;resizeParent=1;resizeParentMax=0;resizeLast=0;collapsible=1;marginBottom=0;whiteSpace=wrap;html=1;fillColor=#f8cecc;strokeColor=#1ec9eb;strokeWidth=9;" vertex="1" parent="1">
          <mxGeometry x="100" y="1950" width="160" height="130" as="geometry" />
        </mxCell>
        <mxCell id="DG3-miZzkFnGcA-WAoE2-8" value="- public Candy()" style="text;strokeColor=#23445d;fillColor=#bac8d3;align=left;verticalAlign=middle;spacingLeft=4;spacingRight=4;overflow=hidden;points=[[0,0.5],[1,0.5]];portConstraint=eastwest;rotatable=0;whiteSpace=wrap;html=1;" vertex="1" parent="PQ5x8KpuFJAVKFXu8_cv-338">
          <mxGeometry y="30" width="160" height="30" as="geometry" />
        </mxCell>
        <mxCell id="DG3-miZzkFnGcA-WAoE2-9" value="- public String displayMessage() Override" style="text;strokeColor=#82b366;fillColor=#d5e8d4;align=left;verticalAlign=middle;spacingLeft=4;spacingRight=4;overflow=hidden;points=[[0,0.5],[1,0.5]];portConstraint=eastwest;rotatable=0;whiteSpace=wrap;html=1;" vertex="1" parent="PQ5x8KpuFJAVKFXu8_cv-338">
          <mxGeometry y="60" width="160" height="30" as="geometry" />
        </mxCell>
        <mxCell id="j89bMswftUTxfXiOQWYd-2" value="Lex" style="text;html=1;strokeColor=#B09500;fillColor=#e3c800;align=center;verticalAlign=middle;whiteSpace=wrap;rounded=0;fontColor=#000000;" vertex="1" parent="PQ5x8KpuFJAVKFXu8_cv-338">
          <mxGeometry y="90" width="160" height="40" as="geometry" />
        </mxCell>
        <mxCell id="PQ5x8KpuFJAVKFXu8_cv-343" value="Candy" style="swimlane;fontStyle=0;childLayout=stackLayout;horizontal=1;startSize=30;horizontalStack=0;resizeParent=1;resizeParentMax=0;resizeLast=0;collapsible=1;marginBottom=0;whiteSpace=wrap;html=1;fillColor=#f8cecc;strokeColor=#1EC9EB;swimlaneFillColor=default;strokeWidth=8;" vertex="1" parent="1">
          <mxGeometry x="290" y="1950" width="160" height="125" as="geometry" />
        </mxCell>
        <mxCell id="DG3-miZzkFnGcA-WAoE2-1" value="- public Candy()" style="text;strokeColor=#23445d;fillColor=#bac8d3;align=left;verticalAlign=middle;spacingLeft=4;spacingRight=4;overflow=hidden;points=[[0,0.5],[1,0.5]];portConstraint=eastwest;rotatable=0;whiteSpace=wrap;html=1;" vertex="1" parent="PQ5x8KpuFJAVKFXu8_cv-343">
          <mxGeometry y="30" width="160" height="30" as="geometry" />
        </mxCell>
        <mxCell id="PQ5x8KpuFJAVKFXu8_cv-364" value="- public String displayMessage() Override" style="text;strokeColor=#82b366;fillColor=#d5e8d4;align=left;verticalAlign=middle;spacingLeft=4;spacingRight=4;overflow=hidden;points=[[0,0.5],[1,0.5]];portConstraint=eastwest;rotatable=0;whiteSpace=wrap;html=1;" vertex="1" parent="PQ5x8KpuFJAVKFXu8_cv-343">
          <mxGeometry y="60" width="160" height="30" as="geometry" />
        </mxCell>
        <mxCell id="j89bMswftUTxfXiOQWYd-3" value="Kaley" style="text;html=1;strokeColor=#432D57;fillColor=#76608a;align=center;verticalAlign=middle;whiteSpace=wrap;rounded=0;fontColor=#ffffff;" vertex="1" parent="PQ5x8KpuFJAVKFXu8_cv-343">
          <mxGeometry y="90" width="160" height="35" as="geometry" />
        </mxCell>
        <mxCell id="PQ5x8KpuFJAVKFXu8_cv-351" value="Gum" style="swimlane;fontStyle=0;childLayout=stackLayout;horizontal=1;startSize=30;horizontalStack=0;resizeParent=1;resizeParentMax=0;resizeLast=0;collapsible=1;marginBottom=0;whiteSpace=wrap;html=1;fillColor=#f8cecc;strokeColor=#1EC9EB;strokeWidth=8;" vertex="1" parent="1">
          <mxGeometry x="480" y="1950" width="160" height="120" as="geometry" />
        </mxCell>
        <mxCell id="DG3-miZzkFnGcA-WAoE2-2" value="- public Candy()" style="text;strokeColor=#23445d;fillColor=#bac8d3;align=left;verticalAlign=middle;spacingLeft=4;spacingRight=4;overflow=hidden;points=[[0,0.5],[1,0.5]];portConstraint=eastwest;rotatable=0;whiteSpace=wrap;html=1;" vertex="1" parent="PQ5x8KpuFJAVKFXu8_cv-351">
          <mxGeometry y="30" width="160" height="30" as="geometry" />
        </mxCell>
        <mxCell id="DG3-miZzkFnGcA-WAoE2-4" value="- public String displayMessage() Override" style="text;strokeColor=#82b366;fillColor=#d5e8d4;align=left;verticalAlign=middle;spacingLeft=4;spacingRight=4;overflow=hidden;points=[[0,0.5],[1,0.5]];portConstraint=eastwest;rotatable=0;whiteSpace=wrap;html=1;" vertex="1" parent="PQ5x8KpuFJAVKFXu8_cv-351">
          <mxGeometry y="60" width="160" height="30" as="geometry" />
        </mxCell>
        <mxCell id="j89bMswftUTxfXiOQWYd-1" value="David" style="text;html=1;strokeColor=#3A5431;fillColor=#6d8764;align=center;verticalAlign=middle;whiteSpace=wrap;rounded=0;fontColor=#ffffff;" vertex="1" parent="PQ5x8KpuFJAVKFXu8_cv-351">
          <mxGeometry y="90" width="160" height="30" as="geometry" />
        </mxCell>
        <mxCell id="PQ5x8KpuFJAVKFXu8_cv-355" value="Beverages" style="swimlane;fontStyle=0;childLayout=stackLayout;horizontal=1;startSize=30;horizontalStack=0;resizeParent=1;resizeParentMax=0;resizeLast=0;collapsible=1;marginBottom=0;whiteSpace=wrap;html=1;fillColor=#f8cecc;strokeColor=#1EC9EB;strokeWidth=8;" vertex="1" parent="1">
          <mxGeometry x="670" y="1950" width="160" height="130" as="geometry" />
        </mxCell>
        <mxCell id="DG3-miZzkFnGcA-WAoE2-5" value="- public Candy()" style="text;strokeColor=#23445d;fillColor=#bac8d3;align=left;verticalAlign=middle;spacingLeft=4;spacingRight=4;overflow=hidden;points=[[0,0.5],[1,0.5]];portConstraint=eastwest;rotatable=0;whiteSpace=wrap;html=1;" vertex="1" parent="PQ5x8KpuFJAVKFXu8_cv-355">
          <mxGeometry y="30" width="160" height="30" as="geometry" />
        </mxCell>
        <mxCell id="DG3-miZzkFnGcA-WAoE2-6" value="- public String displayMessage() Override" style="text;strokeColor=#82b366;fillColor=#d5e8d4;align=left;verticalAlign=middle;spacingLeft=4;spacingRight=4;overflow=hidden;points=[[0,0.5],[1,0.5]];portConstraint=eastwest;rotatable=0;whiteSpace=wrap;html=1;" vertex="1" parent="PQ5x8KpuFJAVKFXu8_cv-355">
          <mxGeometry y="60" width="160" height="30" as="geometry" />
        </mxCell>
        <mxCell id="TcIfLjyX-C5zem31V9z_-1" value="Lex" style="text;html=1;strokeColor=#B09500;fillColor=#e3c800;align=center;verticalAlign=middle;whiteSpace=wrap;rounded=0;fontColor=#000000;" vertex="1" parent="PQ5x8KpuFJAVKFXu8_cv-355">
          <mxGeometry y="90" width="160" height="40" as="geometry" />
        </mxCell>
        <mxCell id="PQ5x8KpuFJAVKFXu8_cv-397" value="Inventory" style="swimlane;fontStyle=0;childLayout=stackLayout;horizontal=1;startSize=30;horizontalStack=0;resizeParent=1;resizeParentMax=0;resizeLast=0;collapsible=1;marginBottom=0;whiteSpace=wrap;html=1;fillColor=#f8cecc;strokeColor=#1EC9EB;strokeWidth=5;" vertex="1" parent="1">
          <mxGeometry x="700" y="1530" width="200" height="360" as="geometry" />
        </mxCell>
        <mxCell id="wREU499mOBv9_BJN5Bkb-1" value="- private String slot" style="text;strokeColor=#6c8ebf;fillColor=#dae8fc;align=left;verticalAlign=middle;spacingLeft=4;spacingRight=4;overflow=hidden;points=[[0,0.5],[1,0.5]];portConstraint=eastwest;rotatable=0;whiteSpace=wrap;html=1;" vertex="1" parent="PQ5x8KpuFJAVKFXu8_cv-397">
          <mxGeometry y="30" width="200" height="30" as="geometry" />
        </mxCell>
        <mxCell id="wREU499mOBv9_BJN5Bkb-2" value="- private String productName" style="text;strokeColor=#6c8ebf;fillColor=#dae8fc;align=left;verticalAlign=middle;spacingLeft=4;spacingRight=4;overflow=hidden;points=[[0,0.5],[1,0.5]];portConstraint=eastwest;rotatable=0;whiteSpace=wrap;html=1;" vertex="1" parent="PQ5x8KpuFJAVKFXu8_cv-397">
          <mxGeometry y="60" width="200" height="30" as="geometry" />
        </mxCell>
        <mxCell id="wREU499mOBv9_BJN5Bkb-3" value="- private String item" style="text;strokeColor=#6c8ebf;fillColor=#dae8fc;align=left;verticalAlign=middle;spacingLeft=4;spacingRight=4;overflow=hidden;points=[[0,0.5],[1,0.5]];portConstraint=eastwest;rotatable=0;whiteSpace=wrap;html=1;" vertex="1" parent="PQ5x8KpuFJAVKFXu8_cv-397">
          <mxGeometry y="90" width="200" height="40" as="geometry" />
        </mxCell>
        <mxCell id="wREU499mOBv9_BJN5Bkb-4" value="- private BigDecimal price" style="text;strokeColor=#6c8ebf;fillColor=#dae8fc;align=left;verticalAlign=middle;spacingLeft=4;spacingRight=4;overflow=hidden;points=[[0,0.5],[1,0.5]];portConstraint=eastwest;rotatable=0;whiteSpace=wrap;html=1;" vertex="1" parent="PQ5x8KpuFJAVKFXu8_cv-397">
          <mxGeometry y="130" width="200" height="40" as="geometry" />
        </mxCell>
        <mxCell id="wREU499mOBv9_BJN5Bkb-5" value="- private int amount = 5" style="text;strokeColor=#6c8ebf;fillColor=#dae8fc;align=left;verticalAlign=middle;spacingLeft=4;spacingRight=4;overflow=hidden;points=[[0,0.5],[1,0.5]];portConstraint=eastwest;rotatable=0;whiteSpace=wrap;html=1;" vertex="1" parent="PQ5x8KpuFJAVKFXu8_cv-397">
          <mxGeometry y="170" width="200" height="30" as="geometry" />
        </mxCell>
        <mxCell id="PQ5x8KpuFJAVKFXu8_cv-398" value="-&amp;nbsp; inventoryList: Map &amp;lt;String slot, Item&amp;gt;" style="text;strokeColor=#6c8ebf;fillColor=#dae8fc;align=left;verticalAlign=middle;spacingLeft=4;spacingRight=4;overflow=hidden;points=[[0,0.5],[1,0.5]];portConstraint=eastwest;rotatable=0;whiteSpace=wrap;html=1;" vertex="1" parent="PQ5x8KpuFJAVKFXu8_cv-397">
          <mxGeometry y="200" width="200" height="30" as="geometry" />
        </mxCell>
        <mxCell id="PQ5x8KpuFJAVKFXu8_cv-401" value="- public stockInventory() : void&amp;nbsp;" style="text;strokeColor=#82b366;fillColor=#d5e8d4;align=left;verticalAlign=middle;spacingLeft=4;spacingRight=4;overflow=hidden;points=[[0,0.5],[1,0.5]];portConstraint=eastwest;rotatable=0;whiteSpace=wrap;html=1;" vertex="1" parent="PQ5x8KpuFJAVKFXu8_cv-397">
          <mxGeometry y="230" width="200" height="30" as="geometry" />
        </mxCell>
        <mxCell id="PQ5x8KpuFJAVKFXu8_cv-402" value="- public removeItem(): void&amp;nbsp;" style="text;strokeColor=#82b366;fillColor=#d5e8d4;align=left;verticalAlign=middle;spacingLeft=4;spacingRight=4;overflow=hidden;points=[[0,0.5],[1,0.5]];portConstraint=eastwest;rotatable=0;whiteSpace=wrap;html=1;" vertex="1" parent="PQ5x8KpuFJAVKFXu8_cv-397">
          <mxGeometry y="260" width="200" height="30" as="geometry" />
        </mxCell>
        <mxCell id="dQuDhp_KzCJ0gFEjijwS-1" value="- public displayInventory() : void" style="text;strokeColor=#82b366;fillColor=#d5e8d4;align=left;verticalAlign=middle;spacingLeft=4;spacingRight=4;overflow=hidden;points=[[0,0.5],[1,0.5]];portConstraint=eastwest;rotatable=0;whiteSpace=wrap;html=1;" vertex="1" parent="PQ5x8KpuFJAVKFXu8_cv-397">
          <mxGeometry y="290" width="200" height="40" as="geometry" />
        </mxCell>
        <mxCell id="1ARiTfjiCE4TvbWLO5M8-28" value="&amp;nbsp;Kaley / Lex" style="text;html=1;align=center;verticalAlign=middle;resizable=0;points=[];autosize=1;strokeColor=#B09500;fillColor=#e3c800;fontColor=#000000;" vertex="1" parent="PQ5x8KpuFJAVKFXu8_cv-397">
          <mxGeometry y="330" width="200" height="30" as="geometry" />
        </mxCell>
        <mxCell id="PQ5x8KpuFJAVKFXu8_cv-403" value="view.Menu" style="swimlane;fontStyle=0;childLayout=stackLayout;horizontal=1;startSize=30;horizontalStack=0;resizeParent=1;resizeParentMax=0;resizeLast=0;collapsible=1;marginBottom=0;whiteSpace=wrap;html=1;fillColor=#f8cecc;strokeColor=none;strokeWidth=5;" vertex="1" parent="1">
          <mxGeometry x="1000" y="1510" width="240" height="210" as="geometry" />
        </mxCell>
        <mxCell id="PQ5x8KpuFJAVKFXu8_cv-407" value="- private PrintWriter out" style="text;strokeColor=#6c8ebf;fillColor=#dae8fc;align=left;verticalAlign=middle;spacingLeft=4;spacingRight=4;overflow=hidden;points=[[0,0.5],[1,0.5]];portConstraint=eastwest;rotatable=0;whiteSpace=wrap;html=1;" vertex="1" parent="PQ5x8KpuFJAVKFXu8_cv-403">
          <mxGeometry y="30" width="240" height="30" as="geometry" />
        </mxCell>
        <mxCell id="3dpSUaaFwkMxnrKQ9X9A-9" value="- private Scanner in" style="text;strokeColor=#6c8ebf;fillColor=#dae8fc;align=left;verticalAlign=middle;spacingLeft=4;spacingRight=4;overflow=hidden;points=[[0,0.5],[1,0.5]];portConstraint=eastwest;rotatable=0;whiteSpace=wrap;html=1;" vertex="1" parent="PQ5x8KpuFJAVKFXu8_cv-403">
          <mxGeometry y="60" width="240" height="30" as="geometry" />
        </mxCell>
        <mxCell id="3dpSUaaFwkMxnrKQ9X9A-10" value="- public Menu()" style="text;strokeColor=#23445d;fillColor=#bac8d3;align=left;verticalAlign=middle;spacingLeft=4;spacingRight=4;overflow=hidden;points=[[0,0.5],[1,0.5]];portConstraint=eastwest;rotatable=0;whiteSpace=wrap;html=1;" vertex="1" parent="PQ5x8KpuFJAVKFXu8_cv-403">
          <mxGeometry y="90" width="240" height="30" as="geometry" />
        </mxCell>
        <mxCell id="3dpSUaaFwkMxnrKQ9X9A-8" value="- public Object getChoiceFromOptions()" style="text;strokeColor=#82b366;fillColor=#d5e8d4;align=left;verticalAlign=middle;spacingLeft=4;spacingRight=4;overflow=hidden;points=[[0,0.5],[1,0.5]];portConstraint=eastwest;rotatable=0;whiteSpace=wrap;html=1;" vertex="1" parent="PQ5x8KpuFJAVKFXu8_cv-403">
          <mxGeometry y="120" width="240" height="30" as="geometry" />
        </mxCell>
        <mxCell id="3dpSUaaFwkMxnrKQ9X9A-7" value="- private Object getChoiceFromUserInput()" style="text;strokeColor=#82b366;fillColor=#d5e8d4;align=left;verticalAlign=middle;spacingLeft=4;spacingRight=4;overflow=hidden;points=[[0,0.5],[1,0.5]];portConstraint=eastwest;rotatable=0;whiteSpace=wrap;html=1;" vertex="1" parent="PQ5x8KpuFJAVKFXu8_cv-403">
          <mxGeometry y="150" width="240" height="30" as="geometry" />
        </mxCell>
        <mxCell id="PQ5x8KpuFJAVKFXu8_cv-408" value="- private void displayMenuOptions()" style="text;strokeColor=#82b366;fillColor=#d5e8d4;align=left;verticalAlign=middle;spacingLeft=4;spacingRight=4;overflow=hidden;points=[[0,0.5],[1,0.5]];portConstraint=eastwest;rotatable=0;whiteSpace=wrap;html=1;" vertex="1" parent="PQ5x8KpuFJAVKFXu8_cv-403">
          <mxGeometry y="180" width="240" height="30" as="geometry" />
        </mxCell>
        <mxCell id="3dpSUaaFwkMxnrKQ9X9A-57" value="" style="endArrow=classic;html=1;rounded=0;fontSize=12;startSize=8;endSize=8;curved=1;fillColor=#f8cecc;strokeColor=#b85450;exitX=0;exitY=0.5;exitDx=0;exitDy=0;entryX=0;entryY=0.5;entryDx=0;entryDy=0;" edge="1" parent="PQ5x8KpuFJAVKFXu8_cv-403" source="3dpSUaaFwkMxnrKQ9X9A-8" target="PQ5x8KpuFJAVKFXu8_cv-408">
          <mxGeometry relative="1" as="geometry">
            <mxPoint x="-20" y="225" as="sourcePoint" />
            <mxPoint x="-30" y="200" as="targetPoint" />
            <Array as="points">
              <mxPoint x="-100" y="180" />
            </Array>
          </mxGeometry>
        </mxCell>
        <mxCell id="3dpSUaaFwkMxnrKQ9X9A-53" value="" style="endArrow=classic;html=1;rounded=0;fontSize=12;startSize=8;endSize=8;curved=1;fillColor=#f8cecc;strokeColor=#b85450;entryX=0;entryY=0.5;entryDx=0;entryDy=0;exitX=0;exitY=0.5;exitDx=0;exitDy=0;" edge="1" parent="PQ5x8KpuFJAVKFXu8_cv-403" source="3dpSUaaFwkMxnrKQ9X9A-8" target="3dpSUaaFwkMxnrKQ9X9A-7">
          <mxGeometry relative="1" as="geometry">
            <mxPoint y="110" as="sourcePoint" />
            <mxPoint x="-10" y="125" as="targetPoint" />
            <Array as="points">
              <mxPoint x="-30" y="150" />
            </Array>
          </mxGeometry>
        </mxCell>
        <mxCell id="3dpSUaaFwkMxnrKQ9X9A-54" value="Calls" style="edgeLabel;resizable=0;html=1;align=center;verticalAlign=middle;fontSize=16;" connectable="0" vertex="1" parent="3dpSUaaFwkMxnrKQ9X9A-53">
          <mxGeometry relative="1" as="geometry">
            <mxPoint x="-11" y="-15" as="offset" />
          </mxGeometry>
        </mxCell>
        <mxCell id="1ARiTfjiCE4TvbWLO5M8-1" value="Log" style="swimlane;fontStyle=0;childLayout=stackLayout;horizontal=1;startSize=30;horizontalStack=0;resizeParent=1;resizeParentMax=0;resizeLast=0;collapsible=1;marginBottom=0;whiteSpace=wrap;html=1;fillColor=#f8cecc;strokeColor=#b85450;" vertex="1" parent="1">
          <mxGeometry x="1310" y="1600" width="210" height="430" as="geometry" />
        </mxCell>
        <mxCell id="1ARiTfjiCE4TvbWLO5M8-2" value="- private File logFile" style="text;strokeColor=#6c8ebf;fillColor=#dae8fc;align=left;verticalAlign=middle;spacingLeft=4;spacingRight=4;overflow=hidden;points=[[0,0.5],[1,0.5]];portConstraint=eastwest;rotatable=0;whiteSpace=wrap;html=1;" vertex="1" parent="1ARiTfjiCE4TvbWLO5M8-1">
          <mxGeometry y="30" width="210" height="30" as="geometry" />
        </mxCell>
        <mxCell id="iQqF1XJJy7b7AU0hdmnl-5" value="- private file salesReportFile" style="text;strokeColor=#6c8ebf;fillColor=#dae8fc;align=left;verticalAlign=middle;spacingLeft=4;spacingRight=4;overflow=hidden;points=[[0,0.5],[1,0.5]];portConstraint=eastwest;rotatable=0;whiteSpace=wrap;html=1;" vertex="1" parent="1ARiTfjiCE4TvbWLO5M8-1">
          <mxGeometry y="60" width="210" height="30" as="geometry" />
        </mxCell>
        <mxCell id="iQqF1XJJy7b7AU0hdmnl-6" value="- private PrintWriter logWriter" style="text;strokeColor=#6c8ebf;fillColor=#dae8fc;align=left;verticalAlign=middle;spacingLeft=4;spacingRight=4;overflow=hidden;points=[[0,0.5],[1,0.5]];portConstraint=eastwest;rotatable=0;whiteSpace=wrap;html=1;" vertex="1" parent="1ARiTfjiCE4TvbWLO5M8-1">
          <mxGeometry y="90" width="210" height="30" as="geometry" />
        </mxCell>
        <mxCell id="iQqF1XJJy7b7AU0hdmnl-7" value="- private PrintWriter salesReport Writer" style="text;strokeColor=#6c8ebf;fillColor=#dae8fc;align=left;verticalAlign=middle;spacingLeft=4;spacingRight=4;overflow=hidden;points=[[0,0.5],[1,0.5]];portConstraint=eastwest;rotatable=0;whiteSpace=wrap;html=1;" vertex="1" parent="1ARiTfjiCE4TvbWLO5M8-1">
          <mxGeometry y="120" width="210" height="30" as="geometry" />
        </mxCell>
        <mxCell id="iQqF1XJJy7b7AU0hdmnl-8" value="- private DateTimeFormatter dtf" style="text;strokeColor=#6c8ebf;fillColor=#dae8fc;align=left;verticalAlign=middle;spacingLeft=4;spacingRight=4;overflow=hidden;points=[[0,0.5],[1,0.5]];portConstraint=eastwest;rotatable=0;whiteSpace=wrap;html=1;" vertex="1" parent="1ARiTfjiCE4TvbWLO5M8-1">
          <mxGeometry y="150" width="210" height="30" as="geometry" />
        </mxCell>
        <mxCell id="1ARiTfjiCE4TvbWLO5M8-6" value="- public Log()" style="text;strokeColor=#23445d;fillColor=#bac8d3;align=left;verticalAlign=middle;spacingLeft=4;spacingRight=4;overflow=hidden;points=[[0,0.5],[1,0.5]];portConstraint=eastwest;rotatable=0;whiteSpace=wrap;html=1;" vertex="1" parent="1ARiTfjiCE4TvbWLO5M8-1">
          <mxGeometry y="180" width="210" height="30" as="geometry" />
        </mxCell>
        <mxCell id="iQqF1XJJy7b7AU0hdmnl-10" value="-&amp;nbsp; public void setSalesReportFile()" style="text;strokeColor=#82b366;fillColor=#d5e8d4;align=left;verticalAlign=middle;spacingLeft=4;spacingRight=4;overflow=hidden;points=[[0,0.5],[1,0.5]];portConstraint=eastwest;rotatable=0;whiteSpace=wrap;html=1;" vertex="1" parent="1ARiTfjiCE4TvbWLO5M8-1">
          <mxGeometry y="210" width="210" height="30" as="geometry" />
        </mxCell>
        <mxCell id="iQqF1XJJy7b7AU0hdmnl-9" value="- public void log()" style="text;strokeColor=#82b366;fillColor=#d5e8d4;align=left;verticalAlign=middle;spacingLeft=4;spacingRight=4;overflow=hidden;points=[[0,0.5],[1,0.5]];portConstraint=eastwest;rotatable=0;whiteSpace=wrap;html=1;" vertex="1" parent="1ARiTfjiCE4TvbWLO5M8-1">
          <mxGeometry y="240" width="210" height="30" as="geometry" />
        </mxCell>
        <mxCell id="iQqF1XJJy7b7AU0hdmnl-11" value="- public void logMoneyFed()" style="text;strokeColor=#82b366;fillColor=#d5e8d4;align=left;verticalAlign=middle;spacingLeft=4;spacingRight=4;overflow=hidden;points=[[0,0.5],[1,0.5]];portConstraint=eastwest;rotatable=0;whiteSpace=wrap;html=1;" vertex="1" parent="1ARiTfjiCE4TvbWLO5M8-1">
          <mxGeometry y="270" width="210" height="30" as="geometry" />
        </mxCell>
        <mxCell id="iQqF1XJJy7b7AU0hdmnl-12" value="- public void logSale()" style="text;strokeColor=#82b366;fillColor=#d5e8d4;align=left;verticalAlign=middle;spacingLeft=4;spacingRight=4;overflow=hidden;points=[[0,0.5],[1,0.5]];portConstraint=eastwest;rotatable=0;whiteSpace=wrap;html=1;" vertex="1" parent="1ARiTfjiCE4TvbWLO5M8-1">
          <mxGeometry y="300" width="210" height="30" as="geometry" />
        </mxCell>
        <mxCell id="dQuDhp_KzCJ0gFEjijwS-3" value="- public void logChangeGiven()" style="text;strokeColor=#82b366;fillColor=#d5e8d4;align=left;verticalAlign=middle;spacingLeft=4;spacingRight=4;overflow=hidden;points=[[0,0.5],[1,0.5]];portConstraint=eastwest;rotatable=0;whiteSpace=wrap;html=1;" vertex="1" parent="1ARiTfjiCE4TvbWLO5M8-1">
          <mxGeometry y="330" width="210" height="30" as="geometry" />
        </mxCell>
        <mxCell id="dQuDhp_KzCJ0gFEjijwS-2" value="- public void logSalesReport()&amp;nbsp;" style="text;strokeColor=#82b366;fillColor=#d5e8d4;align=left;verticalAlign=middle;spacingLeft=4;spacingRight=4;overflow=hidden;points=[[0,0.5],[1,0.5]];portConstraint=eastwest;rotatable=0;whiteSpace=wrap;html=1;" vertex="1" parent="1ARiTfjiCE4TvbWLO5M8-1">
          <mxGeometry y="360" width="210" height="40" as="geometry" />
        </mxCell>
        <mxCell id="1ARiTfjiCE4TvbWLO5M8-29" value="Jason" style="text;html=1;align=center;verticalAlign=middle;resizable=0;points=[];autosize=1;strokeColor=#314354;fillColor=#647687;fontColor=#ffffff;" vertex="1" parent="1ARiTfjiCE4TvbWLO5M8-1">
          <mxGeometry y="400" width="210" height="30" as="geometry" />
        </mxCell>
        <mxCell id="3dpSUaaFwkMxnrKQ9X9A-70" value="" style="endArrow=classic;html=1;rounded=0;fontSize=12;startSize=8;endSize=8;curved=1;entryX=0;entryY=0.5;entryDx=0;entryDy=0;fillColor=#f8cecc;strokeColor=#b85450;exitX=0;exitY=0.5;exitDx=0;exitDy=0;" edge="1" parent="1ARiTfjiCE4TvbWLO5M8-1" source="dQuDhp_KzCJ0gFEjijwS-3" target="iQqF1XJJy7b7AU0hdmnl-9">
          <mxGeometry relative="1" as="geometry">
            <mxPoint x="-15" y="285" as="sourcePoint" />
            <mxPoint x="-55" y="360" as="targetPoint" />
            <Array as="points">
              <mxPoint x="-90" y="300" />
            </Array>
          </mxGeometry>
        </mxCell>
        <mxCell id="3dpSUaaFwkMxnrKQ9X9A-71" value="Call" style="edgeLabel;resizable=0;html=1;align=center;verticalAlign=middle;fontSize=16;" connectable="0" vertex="1" parent="3dpSUaaFwkMxnrKQ9X9A-70">
          <mxGeometry relative="1" as="geometry">
            <mxPoint x="20" as="offset" />
          </mxGeometry>
        </mxCell>
        <mxCell id="3dpSUaaFwkMxnrKQ9X9A-74" value="" style="endArrow=classic;html=1;rounded=0;fontSize=12;startSize=8;endSize=8;curved=1;fillColor=#f8cecc;strokeColor=#b85450;exitX=0;exitY=0.5;exitDx=0;exitDy=0;entryX=0;entryY=0.5;entryDx=0;entryDy=0;" edge="1" parent="1ARiTfjiCE4TvbWLO5M8-1" source="iQqF1XJJy7b7AU0hdmnl-12" target="iQqF1XJJy7b7AU0hdmnl-9">
          <mxGeometry relative="1" as="geometry">
            <mxPoint x="-65" y="350" as="sourcePoint" />
            <mxPoint x="-10" y="215" as="targetPoint" />
            <Array as="points">
              <mxPoint x="-70" y="300" />
            </Array>
          </mxGeometry>
        </mxCell>
        <mxCell id="3dpSUaaFwkMxnrKQ9X9A-77" value="" style="endArrow=classic;html=1;rounded=0;fontSize=12;startSize=8;endSize=8;curved=1;entryX=0;entryY=0.5;entryDx=0;entryDy=0;fillColor=#f8cecc;strokeColor=#b85450;exitX=0;exitY=0.5;exitDx=0;exitDy=0;" edge="1" parent="1ARiTfjiCE4TvbWLO5M8-1" source="iQqF1XJJy7b7AU0hdmnl-11" target="iQqF1XJJy7b7AU0hdmnl-9">
          <mxGeometry relative="1" as="geometry">
            <mxPoint x="-60" y="355" as="sourcePoint" />
            <mxPoint x="-60" y="270" as="targetPoint" />
            <Array as="points">
              <mxPoint x="-50" y="290" />
            </Array>
          </mxGeometry>
        </mxCell>
        <mxCell id="1ARiTfjiCE4TvbWLO5M8-11" value="" style="endArrow=classic;html=1;rounded=0;entryX=1;entryY=0.5;entryDx=0;entryDy=0;fillColor=#f8cecc;strokeColor=#b85450;exitX=0;exitY=0.5;exitDx=0;exitDy=0;" edge="1" parent="1" source="PQ5x8KpuFJAVKFXu8_cv-402" target="1ARiTfjiCE4TvbWLO5M8-10">
          <mxGeometry relative="1" as="geometry">
            <mxPoint x="890" y="1697.5" as="sourcePoint" />
            <mxPoint x="1030" y="1717.5" as="targetPoint" />
          </mxGeometry>
        </mxCell>
        <mxCell id="1ARiTfjiCE4TvbWLO5M8-12" value="Calls" style="edgeLabel;resizable=0;html=1;align=center;verticalAlign=middle;" connectable="0" vertex="1" parent="1ARiTfjiCE4TvbWLO5M8-11">
          <mxGeometry relative="1" as="geometry" />
        </mxCell>
        <mxCell id="1ARiTfjiCE4TvbWLO5M8-13" value="Source" style="edgeLabel;resizable=0;html=1;align=left;verticalAlign=bottom;" connectable="0" vertex="1" parent="1ARiTfjiCE4TvbWLO5M8-11">
          <mxGeometry x="-1" relative="1" as="geometry">
            <mxPoint x="-40" as="offset" />
          </mxGeometry>
        </mxCell>
        <mxCell id="1ARiTfjiCE4TvbWLO5M8-14" value="Target" style="edgeLabel;resizable=0;html=1;align=right;verticalAlign=bottom;" connectable="0" vertex="1" parent="1ARiTfjiCE4TvbWLO5M8-11">
          <mxGeometry x="1" relative="1" as="geometry">
            <mxPoint x="41" y="20" as="offset" />
          </mxGeometry>
        </mxCell>
        <mxCell id="3dpSUaaFwkMxnrKQ9X9A-11" value="" style="endArrow=classic;html=1;rounded=0;fontSize=12;startSize=8;endSize=8;curved=1;entryX=0;entryY=1;entryDx=0;entryDy=0;exitX=0.5;exitY=0;exitDx=0;exitDy=0;fillColor=#e1d5e7;strokeColor=#9673a6;" edge="1" parent="1" source="PQ5x8KpuFJAVKFXu8_cv-338" target="PQ5x8KpuFJAVKFXu8_cv-27">
          <mxGeometry relative="1" as="geometry">
            <mxPoint x="210" y="1840" as="sourcePoint" />
            <mxPoint x="690" y="1900" as="targetPoint" />
          </mxGeometry>
        </mxCell>
        <mxCell id="3dpSUaaFwkMxnrKQ9X9A-12" value="Is-A" style="edgeLabel;resizable=0;html=1;align=center;verticalAlign=middle;fontSize=16;" connectable="0" vertex="1" parent="3dpSUaaFwkMxnrKQ9X9A-11">
          <mxGeometry relative="1" as="geometry" />
        </mxCell>
        <mxCell id="3dpSUaaFwkMxnrKQ9X9A-13" value="" style="endArrow=classic;html=1;rounded=0;fontSize=12;startSize=8;endSize=8;curved=1;exitX=0.5;exitY=0;exitDx=0;exitDy=0;fillColor=#e1d5e7;strokeColor=#9673a6;" edge="1" parent="1" source="PQ5x8KpuFJAVKFXu8_cv-343">
          <mxGeometry relative="1" as="geometry">
            <mxPoint x="320" y="1970" as="sourcePoint" />
            <mxPoint x="420" y="1850" as="targetPoint" />
          </mxGeometry>
        </mxCell>
        <mxCell id="3dpSUaaFwkMxnrKQ9X9A-14" value="Is-A" style="edgeLabel;resizable=0;html=1;align=center;verticalAlign=middle;fontSize=16;" connectable="0" vertex="1" parent="3dpSUaaFwkMxnrKQ9X9A-13">
          <mxGeometry relative="1" as="geometry">
            <mxPoint x="25" as="offset" />
          </mxGeometry>
        </mxCell>
        <mxCell id="3dpSUaaFwkMxnrKQ9X9A-15" value="" style="endArrow=classic;html=1;rounded=0;fontSize=12;startSize=8;endSize=8;curved=1;entryX=0.75;entryY=1;entryDx=0;entryDy=0;exitX=0.5;exitY=0;exitDx=0;exitDy=0;fillColor=#e1d5e7;strokeColor=#9673a6;" edge="1" parent="1" source="PQ5x8KpuFJAVKFXu8_cv-351" target="PQ5x8KpuFJAVKFXu8_cv-27">
          <mxGeometry relative="1" as="geometry">
            <mxPoint x="440" y="1970" as="sourcePoint" />
            <mxPoint x="610" y="1860" as="targetPoint" />
          </mxGeometry>
        </mxCell>
        <mxCell id="3dpSUaaFwkMxnrKQ9X9A-16" value="Is-A" style="edgeLabel;resizable=0;html=1;align=center;verticalAlign=middle;fontSize=16;" connectable="0" vertex="1" parent="3dpSUaaFwkMxnrKQ9X9A-15">
          <mxGeometry relative="1" as="geometry" />
        </mxCell>
        <mxCell id="3dpSUaaFwkMxnrKQ9X9A-17" value="" style="endArrow=classic;html=1;rounded=0;fontSize=12;startSize=8;endSize=8;curved=1;exitX=0.5;exitY=0;exitDx=0;exitDy=0;fillColor=#e1d5e7;strokeColor=#9673a6;" edge="1" parent="1" source="PQ5x8KpuFJAVKFXu8_cv-355">
          <mxGeometry relative="1" as="geometry">
            <mxPoint x="640" y="1940" as="sourcePoint" />
            <mxPoint x="570" y="1850" as="targetPoint" />
          </mxGeometry>
        </mxCell>
        <mxCell id="3dpSUaaFwkMxnrKQ9X9A-18" value="Is-A" style="edgeLabel;resizable=0;html=1;align=center;verticalAlign=middle;fontSize=16;" connectable="0" vertex="1" parent="3dpSUaaFwkMxnrKQ9X9A-17">
          <mxGeometry relative="1" as="geometry" />
        </mxCell>
        <mxCell id="3dpSUaaFwkMxnrKQ9X9A-22" value="" style="endArrow=classic;html=1;rounded=0;fontSize=12;startSize=8;endSize=8;curved=1;exitX=0;exitY=1;exitDx=0;exitDy=0;entryX=1;entryY=0;entryDx=0;entryDy=0;fillColor=#dae8fc;strokeColor=#6c8ebf;" edge="1" parent="1" source="PQ5x8KpuFJAVKFXu8_cv-15" target="PQ5x8KpuFJAVKFXu8_cv-27">
          <mxGeometry relative="1" as="geometry">
            <mxPoint x="1140" y="1390" as="sourcePoint" />
            <mxPoint x="1240" y="1390" as="targetPoint" />
          </mxGeometry>
        </mxCell>
        <mxCell id="3dpSUaaFwkMxnrKQ9X9A-23" value="Has-A" style="edgeLabel;resizable=0;html=1;align=center;verticalAlign=middle;fontSize=16;" connectable="0" vertex="1" parent="3dpSUaaFwkMxnrKQ9X9A-22">
          <mxGeometry relative="1" as="geometry" />
        </mxCell>
        <mxCell id="3dpSUaaFwkMxnrKQ9X9A-25" value="" style="endArrow=classic;html=1;rounded=0;fontSize=12;startSize=8;endSize=8;curved=1;exitX=0.25;exitY=1;exitDx=0;exitDy=0;entryX=0.5;entryY=0;entryDx=0;entryDy=0;fillColor=#dae8fc;strokeColor=#6c8ebf;" edge="1" parent="1" source="PQ5x8KpuFJAVKFXu8_cv-15" target="PQ5x8KpuFJAVKFXu8_cv-397">
          <mxGeometry relative="1" as="geometry">
            <mxPoint x="865" y="1470" as="sourcePoint" />
            <mxPoint x="635" y="1460" as="targetPoint" />
          </mxGeometry>
        </mxCell>
        <mxCell id="3dpSUaaFwkMxnrKQ9X9A-26" value="Has-A" style="edgeLabel;resizable=0;html=1;align=center;verticalAlign=middle;fontSize=16;" connectable="0" vertex="1" parent="3dpSUaaFwkMxnrKQ9X9A-25">
          <mxGeometry relative="1" as="geometry" />
        </mxCell>
        <mxCell id="3dpSUaaFwkMxnrKQ9X9A-27" value="" style="endArrow=classic;html=1;rounded=0;fontSize=12;startSize=8;endSize=8;curved=1;exitX=0.75;exitY=1;exitDx=0;exitDy=0;entryX=0.5;entryY=0;entryDx=0;entryDy=0;fillColor=#dae8fc;strokeColor=#6c8ebf;" edge="1" parent="1" source="PQ5x8KpuFJAVKFXu8_cv-15" target="PQ5x8KpuFJAVKFXu8_cv-403">
          <mxGeometry relative="1" as="geometry">
            <mxPoint x="1275" y="1450" as="sourcePoint" />
            <mxPoint x="1045" y="1440" as="targetPoint" />
          </mxGeometry>
        </mxCell>
        <mxCell id="3dpSUaaFwkMxnrKQ9X9A-28" value="Has-A" style="edgeLabel;resizable=0;html=1;align=center;verticalAlign=middle;fontSize=16;" connectable="0" vertex="1" parent="3dpSUaaFwkMxnrKQ9X9A-27">
          <mxGeometry relative="1" as="geometry" />
        </mxCell>
        <mxCell id="3dpSUaaFwkMxnrKQ9X9A-29" value="" style="endArrow=classic;html=1;rounded=0;fontSize=12;startSize=8;endSize=8;curved=1;entryX=0.5;entryY=0;entryDx=0;entryDy=0;fillColor=#dae8fc;strokeColor=#6c8ebf;exitX=1;exitY=1;exitDx=0;exitDy=0;" edge="1" parent="1" source="PQ5x8KpuFJAVKFXu8_cv-15" target="1ARiTfjiCE4TvbWLO5M8-1">
          <mxGeometry relative="1" as="geometry">
            <mxPoint x="1100" y="1400" as="sourcePoint" />
            <mxPoint x="1270" y="1430" as="targetPoint" />
          </mxGeometry>
        </mxCell>
        <mxCell id="3dpSUaaFwkMxnrKQ9X9A-30" value="Has-A" style="edgeLabel;resizable=0;html=1;align=center;verticalAlign=middle;fontSize=16;" connectable="0" vertex="1" parent="3dpSUaaFwkMxnrKQ9X9A-29">
          <mxGeometry relative="1" as="geometry" />
        </mxCell>
        <mxCell id="wREU499mOBv9_BJN5Bkb-6" value="- public void goBack()" style="text;strokeColor=#82b366;fillColor=#d5e8d4;align=left;verticalAlign=middle;spacingLeft=4;spacingRight=4;overflow=hidden;points=[[0,0.5],[1,0.5]];portConstraint=eastwest;rotatable=0;whiteSpace=wrap;html=1;" vertex="1" parent="1">
          <mxGeometry x="1000" y="1720" width="240" height="30" as="geometry" />
        </mxCell>
        <mxCell id="wREU499mOBv9_BJN5Bkb-7" value="- public int getFeedMoneyAmount()" style="text;strokeColor=#82b366;fillColor=#d5e8d4;align=left;verticalAlign=middle;spacingLeft=4;spacingRight=4;overflow=hidden;points=[[0,0.5],[1,0.5]];portConstraint=eastwest;rotatable=0;whiteSpace=wrap;html=1;" vertex="1" parent="1">
          <mxGeometry x="1000" y="1750" width="240" height="30" as="geometry" />
        </mxCell>
        <mxCell id="wREU499mOBv9_BJN5Bkb-8" value="- public String getSlotSelection()" style="text;strokeColor=#82b366;fillColor=#d5e8d4;align=left;verticalAlign=middle;spacingLeft=4;spacingRight=4;overflow=hidden;points=[[0,0.5],[1,0.5]];portConstraint=eastwest;rotatable=0;whiteSpace=wrap;html=1;" vertex="1" parent="1">
          <mxGeometry x="1000" y="1780" width="240" height="30" as="geometry" />
        </mxCell>
        <mxCell id="wREU499mOBv9_BJN5Bkb-12" value="Jason / David" style="text;strokeColor=#314354;fillColor=#647687;align=center;verticalAlign=middle;spacingLeft=4;spacingRight=4;overflow=hidden;points=[[0,0.5],[1,0.5]];portConstraint=eastwest;rotatable=0;whiteSpace=wrap;html=1;fontColor=#ffffff;" vertex="1" parent="1">
          <mxGeometry x="1000" y="1810" width="240" height="30" as="geometry" />
        </mxCell>
      </root>
    </mxGraphModel>
  </diagram>
  <diagram id="hLwGjTf0dlxKz1SCZ9iv" name="Testing List">
    <mxGraphModel grid="1" page="1" gridSize="10" guides="1" tooltips="1" connect="1" arrows="1" fold="1" pageScale="1" pageWidth="850" pageHeight="1100" math="0" shadow="0">
      <root>
        <mxCell id="0" />
        <mxCell id="1" parent="0" />
        <mxCell id="40s3pxIEJQoOi_5UAo9E-1" value="Tests" style="swimlane;fontStyle=0;childLayout=stackLayout;horizontal=1;startSize=30;horizontalStack=0;resizeParent=1;resizeParentMax=0;resizeLast=0;collapsible=1;marginBottom=0;whiteSpace=wrap;html=1;fillColor=#f8cecc;strokeColor=#b85450;" vertex="1" parent="1">
          <mxGeometry x="310" y="420" width="230" height="460" as="geometry" />
        </mxCell>
        <mxCell id="40s3pxIEJQoOi_5UAo9E-2" value="- Beverages" style="text;strokeColor=#d6b656;fillColor=#fff2cc;align=left;verticalAlign=middle;spacingLeft=4;spacingRight=4;overflow=hidden;points=[[0,0.5],[1,0.5]];portConstraint=eastwest;rotatable=0;whiteSpace=wrap;html=1;" vertex="1" parent="40s3pxIEJQoOi_5UAo9E-1">
          <mxGeometry y="30" width="230" height="30" as="geometry" />
        </mxCell>
        <mxCell id="40s3pxIEJQoOi_5UAo9E-3" value="- Candy" style="text;strokeColor=#d6b656;fillColor=#fff2cc;align=left;verticalAlign=middle;spacingLeft=4;spacingRight=4;overflow=hidden;points=[[0,0.5],[1,0.5]];portConstraint=eastwest;rotatable=0;whiteSpace=wrap;html=1;" vertex="1" parent="40s3pxIEJQoOi_5UAo9E-1">
          <mxGeometry y="60" width="230" height="30" as="geometry" />
        </mxCell>
        <mxCell id="40s3pxIEJQoOi_5UAo9E-4" value="- Chips" style="text;strokeColor=#d6b656;fillColor=#fff2cc;align=left;verticalAlign=middle;spacingLeft=4;spacingRight=4;overflow=hidden;points=[[0,0.5],[1,0.5]];portConstraint=eastwest;rotatable=0;whiteSpace=wrap;html=1;" vertex="1" parent="40s3pxIEJQoOi_5UAo9E-1">
          <mxGeometry y="90" width="230" height="40" as="geometry" />
        </mxCell>
        <mxCell id="40s3pxIEJQoOi_5UAo9E-5" value="- Gum&amp;nbsp;" style="text;strokeColor=#d6b656;fillColor=#fff2cc;align=left;verticalAlign=middle;spacingLeft=4;spacingRight=4;overflow=hidden;points=[[0,0.5],[1,0.5]];portConstraint=eastwest;rotatable=0;whiteSpace=wrap;html=1;" vertex="1" parent="40s3pxIEJQoOi_5UAo9E-1">
          <mxGeometry y="130" width="230" height="40" as="geometry" />
        </mxCell>
        <mxCell id="40s3pxIEJQoOi_5UAo9E-6" value="- Inventory" style="text;strokeColor=#d6b656;fillColor=#fff2cc;align=left;verticalAlign=middle;spacingLeft=4;spacingRight=4;overflow=hidden;points=[[0,0.5],[1,0.5]];portConstraint=eastwest;rotatable=0;whiteSpace=wrap;html=1;" vertex="1" parent="40s3pxIEJQoOi_5UAo9E-1">
          <mxGeometry y="170" width="230" height="30" as="geometry" />
        </mxCell>
        <mxCell id="40s3pxIEJQoOi_5UAo9E-7" value="- Menu" style="text;strokeColor=#d6b656;fillColor=#fff2cc;align=left;verticalAlign=middle;spacingLeft=4;spacingRight=4;overflow=hidden;points=[[0,0.5],[1,0.5]];portConstraint=eastwest;rotatable=0;whiteSpace=wrap;html=1;" vertex="1" parent="40s3pxIEJQoOi_5UAo9E-1">
          <mxGeometry y="200" width="230" height="30" as="geometry" />
        </mxCell>
        <mxCell id="40s3pxIEJQoOi_5UAo9E-8" value="- Money" style="text;strokeColor=#d6b656;fillColor=#fff2cc;align=left;verticalAlign=middle;spacingLeft=4;spacingRight=4;overflow=hidden;points=[[0,0.5],[1,0.5]];portConstraint=eastwest;rotatable=0;whiteSpace=wrap;html=1;" vertex="1" parent="40s3pxIEJQoOi_5UAo9E-1">
          <mxGeometry y="230" width="230" height="30" as="geometry" />
        </mxCell>
        <mxCell id="40s3pxIEJQoOi_5UAo9E-9" value="- Vending Machine" style="text;strokeColor=#d6b656;fillColor=#fff2cc;align=left;verticalAlign=middle;spacingLeft=4;spacingRight=4;overflow=hidden;points=[[0,0.5],[1,0.5]];portConstraint=eastwest;rotatable=0;whiteSpace=wrap;html=1;" vertex="1" parent="40s3pxIEJQoOi_5UAo9E-1">
          <mxGeometry y="260" width="230" height="40" as="geometry" />
        </mxCell>
        <mxCell id="40s3pxIEJQoOi_5UAo9E-10" value="- public BigDecimal getPrice" style="text;strokeColor=#d6b656;fillColor=#fff2cc;align=left;verticalAlign=middle;spacingLeft=4;spacingRight=4;overflow=hidden;points=[[0,0.5],[1,0.5]];portConstraint=eastwest;rotatable=0;whiteSpace=wrap;html=1;" vertex="1" parent="40s3pxIEJQoOi_5UAo9E-1">
          <mxGeometry y="300" width="230" height="40" as="geometry" />
        </mxCell>
        <mxCell id="40s3pxIEJQoOi_5UAo9E-11" value="- public getSlot()" style="text;strokeColor=#d6b656;fillColor=#fff2cc;align=left;verticalAlign=middle;spacingLeft=4;spacingRight=4;overflow=hidden;points=[[0,0.5],[1,0.5]];portConstraint=eastwest;rotatable=0;whiteSpace=wrap;html=1;" vertex="1" parent="40s3pxIEJQoOi_5UAo9E-1">
          <mxGeometry y="340" width="230" height="40" as="geometry" />
        </mxCell>
        <mxCell id="40s3pxIEJQoOi_5UAo9E-12" value="- public void decrementItemCount()" style="text;strokeColor=#d6b656;fillColor=#fff2cc;align=left;verticalAlign=middle;spacingLeft=4;spacingRight=4;overflow=hidden;points=[[0,0.5],[1,0.5]];portConstraint=eastwest;rotatable=0;whiteSpace=wrap;html=1;" vertex="1" parent="40s3pxIEJQoOi_5UAo9E-1">
          <mxGeometry y="380" width="230" height="40" as="geometry" />
        </mxCell>
        <mxCell id="40s3pxIEJQoOi_5UAo9E-13" value="Kaley&lt;br&gt;Lex" style="text;html=1;align=center;verticalAlign=middle;resizable=0;points=[];autosize=1;strokeColor=#FFD966;fillColor=#76608a;fontColor=#ffffff;strokeWidth=8;" vertex="1" parent="40s3pxIEJQoOi_5UAo9E-1">
          <mxGeometry y="420" width="230" height="40" as="geometry" />
        </mxCell>
      </root>
    </mxGraphModel>
  </diagram>
  <diagram id="1vkLpD5iDCRaTV-oZSy6" name="Physical Visualiation">
    <mxGraphModel grid="1" page="1" gridSize="10" guides="1" tooltips="1" connect="1" arrows="1" fold="1" pageScale="1" pageWidth="850" pageHeight="1100" math="0" shadow="0">
      <root>
        <mxCell id="0" />
        <mxCell id="1" parent="0" />
        <mxCell id="ncJVjYMCkeNy0TRFu06b-1" value="" style="group" connectable="0" vertex="1" parent="1">
          <mxGeometry x="1940" y="500" width="400" height="730" as="geometry" />
        </mxCell>
        <mxCell id="ncJVjYMCkeNy0TRFu06b-2" value="" style="triangle;whiteSpace=wrap;html=1;rotation=90;container=0;fillColor=#76608a;fontColor=#ffffff;strokeColor=#432D57;" vertex="1" parent="ncJVjYMCkeNy0TRFu06b-1">
          <mxGeometry x="30" y="660" width="60" height="80" as="geometry" />
        </mxCell>
        <mxCell id="ncJVjYMCkeNy0TRFu06b-3" value="" style="triangle;whiteSpace=wrap;html=1;rotation=90;container=0;fillColor=#76608a;fontColor=#ffffff;strokeColor=#432D57;" vertex="1" parent="ncJVjYMCkeNy0TRFu06b-1">
          <mxGeometry x="320" y="660" width="60" height="80" as="geometry" />
        </mxCell>
        <mxCell id="ncJVjYMCkeNy0TRFu06b-4" value="umbrella&lt;br&gt;corp." style="rounded=0;whiteSpace=wrap;html=1;strokeWidth=5;fillColor=#fff2cc;strokeColor=#CC00CC;container=0;" vertex="1" parent="ncJVjYMCkeNy0TRFu06b-1">
          <mxGeometry x="140" width="120" height="60" as="geometry" />
        </mxCell>
        <mxCell id="ncJVjYMCkeNy0TRFu06b-5" value="" style="rounded=0;whiteSpace=wrap;html=1;rotation=90;container=0;fillColor=#76608a;fontColor=#ffffff;strokeColor=#432D57;" vertex="1" parent="ncJVjYMCkeNy0TRFu06b-1">
          <mxGeometry x="-110" y="170" width="620" height="400" as="geometry" />
        </mxCell>
        <mxCell id="ncJVjYMCkeNy0TRFu06b-6" value="" style="endArrow=none;html=1;rounded=0;" edge="1" parent="ncJVjYMCkeNy0TRFu06b-1" source="ncJVjYMCkeNy0TRFu06b-8">
          <mxGeometry width="50" height="50" relative="1" as="geometry">
            <mxPoint x="85" y="345" as="sourcePoint" />
            <mxPoint x="135" y="295" as="targetPoint" />
          </mxGeometry>
        </mxCell>
        <mxCell id="ncJVjYMCkeNy0TRFu06b-7" value="" style="endArrow=none;html=1;rounded=0;" edge="1" parent="ncJVjYMCkeNy0TRFu06b-1" target="ncJVjYMCkeNy0TRFu06b-8">
          <mxGeometry width="50" height="50" relative="1" as="geometry">
            <mxPoint x="85" y="345" as="sourcePoint" />
            <mxPoint x="135" y="295" as="targetPoint" />
          </mxGeometry>
        </mxCell>
        <mxCell id="ncJVjYMCkeNy0TRFu06b-8" value="" style="rounded=0;whiteSpace=wrap;html=1;rotation=90;container=0;fillColor=#d0cee2;strokeColor=#56517e;" vertex="1" parent="ncJVjYMCkeNy0TRFu06b-1">
          <mxGeometry x="-76.25" y="198.75" width="555" height="342.5" as="geometry" />
        </mxCell>
        <mxCell id="ncJVjYMCkeNy0TRFu06b-9" value="" style="shape=link;html=1;rounded=0;" edge="1" parent="ncJVjYMCkeNy0TRFu06b-1">
          <mxGeometry width="100" relative="1" as="geometry">
            <mxPoint x="31" y="196" as="sourcePoint" />
            <mxPoint x="371" y="196" as="targetPoint" />
          </mxGeometry>
        </mxCell>
        <mxCell id="ncJVjYMCkeNy0TRFu06b-10" value="" style="shape=link;html=1;rounded=0;" edge="1" parent="ncJVjYMCkeNy0TRFu06b-1">
          <mxGeometry width="100" relative="1" as="geometry">
            <mxPoint x="32.25" y="305" as="sourcePoint" />
            <mxPoint x="371" y="305" as="targetPoint" />
          </mxGeometry>
        </mxCell>
        <mxCell id="ncJVjYMCkeNy0TRFu06b-11" value="" style="shape=link;html=1;rounded=0;" edge="1" parent="ncJVjYMCkeNy0TRFu06b-1">
          <mxGeometry width="100" relative="1" as="geometry">
            <mxPoint x="32.25" y="447" as="sourcePoint" />
            <mxPoint x="371" y="447" as="targetPoint" />
          </mxGeometry>
        </mxCell>
        <mxCell id="ncJVjYMCkeNy0TRFu06b-12" value="" style="shape=or;whiteSpace=wrap;html=1;rotation=-90;fillColor=#60a917;strokeColor=#2D7600;container=0;fontColor=#ffffff;" vertex="1" parent="ncJVjYMCkeNy0TRFu06b-1">
          <mxGeometry x="55" y="118" width="60" height="80" as="geometry" />
        </mxCell>
        <mxCell id="ncJVjYMCkeNy0TRFu06b-13" value="" style="shape=or;whiteSpace=wrap;html=1;rotation=-90;fillColor=#1ba1e2;strokeColor=#006EAF;container=0;fontColor=#ffffff;" vertex="1" parent="ncJVjYMCkeNy0TRFu06b-1">
          <mxGeometry x="285" y="118" width="60" height="80" as="geometry" />
        </mxCell>
        <mxCell id="ncJVjYMCkeNy0TRFu06b-14" value="" style="shape=or;whiteSpace=wrap;html=1;rotation=-90;fillColor=#d80073;strokeColor=#A50040;container=0;fontColor=#ffffff;" vertex="1" parent="ncJVjYMCkeNy0TRFu06b-1">
          <mxGeometry x="171.25" y="118" width="60" height="80" as="geometry" />
        </mxCell>
        <mxCell id="ncJVjYMCkeNy0TRFu06b-15" value="" style="shape=xor;whiteSpace=wrap;html=1;direction=south;fillColor=#fa6800;strokeColor=#C73500;container=0;fontColor=#000000;" vertex="1" parent="ncJVjYMCkeNy0TRFu06b-1">
          <mxGeometry x="45" y="238" width="80" height="60" as="geometry" />
        </mxCell>
        <mxCell id="ncJVjYMCkeNy0TRFu06b-16" value="" style="shape=xor;whiteSpace=wrap;html=1;direction=south;fillColor=#6d8764;strokeColor=#3A5431;container=0;fontColor=#ffffff;" vertex="1" parent="ncJVjYMCkeNy0TRFu06b-1">
          <mxGeometry x="160" y="238" width="80" height="60" as="geometry" />
        </mxCell>
        <mxCell id="ncJVjYMCkeNy0TRFu06b-17" value="" style="shape=xor;whiteSpace=wrap;html=1;direction=south;fillColor=#f0a30a;strokeColor=#BD7000;container=0;fontColor=#000000;" vertex="1" parent="ncJVjYMCkeNy0TRFu06b-1">
          <mxGeometry x="275" y="238" width="80" height="60" as="geometry" />
        </mxCell>
        <mxCell id="ncJVjYMCkeNy0TRFu06b-18" value="" style="ellipse;shape=cloud;whiteSpace=wrap;html=1;direction=west;rotation=60;fillColor=#ffff88;strokeColor=#36393d;container=0;" vertex="1" parent="ncJVjYMCkeNy0TRFu06b-1">
          <mxGeometry x="25" y="348" width="120" height="80" as="geometry" />
        </mxCell>
        <mxCell id="ncJVjYMCkeNy0TRFu06b-19" value="" style="ellipse;shape=cloud;whiteSpace=wrap;html=1;direction=west;rotation=60;fillColor=#cdeb8b;strokeColor=#36393d;container=0;" vertex="1" parent="ncJVjYMCkeNy0TRFu06b-1">
          <mxGeometry x="141.25" y="347" width="120" height="80" as="geometry" />
        </mxCell>
        <mxCell id="ncJVjYMCkeNy0TRFu06b-20" value="" style="ellipse;shape=cloud;whiteSpace=wrap;html=1;direction=west;rotation=60;fillColor=#cce5ff;strokeColor=#36393d;container=0;" vertex="1" parent="ncJVjYMCkeNy0TRFu06b-1">
          <mxGeometry x="255" y="347" width="120" height="80" as="geometry" />
        </mxCell>
        <mxCell id="ncJVjYMCkeNy0TRFu06b-21" value="" style="shape=tape;whiteSpace=wrap;html=1;direction=north;rotation=0;fillColor=#6a00ff;strokeColor=#3700CC;container=0;fontColor=#ffffff;" vertex="1" parent="ncJVjYMCkeNy0TRFu06b-1">
          <mxGeometry x="40" y="486" width="90" height="100" as="geometry" />
        </mxCell>
        <mxCell id="ncJVjYMCkeNy0TRFu06b-22" value="" style="shape=tape;whiteSpace=wrap;html=1;direction=south;rotation=0;fillColor=#60a917;strokeColor=#2D7600;container=0;fontColor=#ffffff;" vertex="1" parent="ncJVjYMCkeNy0TRFu06b-1">
          <mxGeometry x="155" y="486" width="90" height="100" as="geometry" />
        </mxCell>
        <mxCell id="ncJVjYMCkeNy0TRFu06b-23" value="" style="shape=tape;whiteSpace=wrap;html=1;direction=south;rotation=0;fillColor=#a20025;strokeColor=#6F0000;container=0;fontColor=#ffffff;" vertex="1" parent="ncJVjYMCkeNy0TRFu06b-1">
          <mxGeometry x="270" y="486" width="90" height="100" as="geometry" />
        </mxCell>
        <mxCell id="ncJVjYMCkeNy0TRFu06b-24" value="" style="shape=link;html=1;rounded=0;" edge="1" parent="ncJVjYMCkeNy0TRFu06b-1">
          <mxGeometry width="100" relative="1" as="geometry">
            <mxPoint x="31.88000000000011" y="595" as="sourcePoint" />
            <mxPoint x="370.6300000000001" y="595" as="targetPoint" />
          </mxGeometry>
        </mxCell>
        <mxCell id="ncJVjYMCkeNy0TRFu06b-25" value="" style="shape=ext;margin=3;double=1;whiteSpace=wrap;html=1;align=center;fillColor=#647687;strokeColor=#314354;fontColor=#ffffff;" vertex="1" parent="ncJVjYMCkeNy0TRFu06b-1">
          <mxGeometry x="150" y="606" width="100" height="40" as="geometry" />
        </mxCell>
        <mxCell id="ncJVjYMCkeNy0TRFu06b-26" value="" style="shape=ext;margin=3;double=1;whiteSpace=wrap;html=1;align=center;fillColor=#eeeeee;strokeColor=#36393d;rotation=90;" vertex="1" parent="ncJVjYMCkeNy0TRFu06b-1">
          <mxGeometry x="362.5" y="312.5" width="50" height="20" as="geometry" />
        </mxCell>
        <mxCell id="ncJVjYMCkeNy0TRFu06b-27" value="" style="line;strokeWidth=4;html=1;perimeter=backbonePerimeter;points=[];outlineConnect=0;" vertex="1" parent="ncJVjYMCkeNy0TRFu06b-1">
          <mxGeometry x="380" y="350" width="15" height="20" as="geometry" />
        </mxCell>
      </root>
    </mxGraphModel>
  </diagram>
  <diagram id="S-A9PAK1TiKqYTtagTqD" name="Application Flowchart">
    <mxGraphModel grid="1" page="1" gridSize="10" guides="1" tooltips="1" connect="1" arrows="1" fold="1" pageScale="1" pageWidth="850" pageHeight="1100" math="0" shadow="0">
      <root>
        <mxCell id="0" />
        <mxCell id="1" parent="0" />
        <mxCell id="2SIb5Jxp2IdRy_dDA1Ox-1" value="" style="edgeStyle=orthogonalEdgeStyle;rounded=0;orthogonalLoop=1;jettySize=auto;html=1;" edge="1" parent="1" source="2SIb5Jxp2IdRy_dDA1Ox-2" target="2SIb5Jxp2IdRy_dDA1Ox-4">
          <mxGeometry relative="1" as="geometry" />
        </mxCell>
        <mxCell id="2SIb5Jxp2IdRy_dDA1Ox-2" value="Start" style="ellipse;whiteSpace=wrap;html=1;aspect=fixed;fillColor=#eeeeee;strokeColor=#36393d;" vertex="1" parent="1">
          <mxGeometry x="4060" y="-170" width="80" height="80" as="geometry" />
        </mxCell>
        <mxCell id="2SIb5Jxp2IdRy_dDA1Ox-3" value="" style="edgeStyle=orthogonalEdgeStyle;rounded=0;orthogonalLoop=1;jettySize=auto;html=1;" edge="1" parent="1" source="2SIb5Jxp2IdRy_dDA1Ox-4" target="2SIb5Jxp2IdRy_dDA1Ox-6">
          <mxGeometry relative="1" as="geometry" />
        </mxCell>
        <mxCell id="2SIb5Jxp2IdRy_dDA1Ox-4" value="New Machine" style="whiteSpace=wrap;html=1;aspect=fixed;fillColor=#e3c800;strokeColor=#B09500;fontColor=#000000;" vertex="1" parent="1">
          <mxGeometry x="4060" y="-70" width="80" height="80" as="geometry" />
        </mxCell>
        <mxCell id="2SIb5Jxp2IdRy_dDA1Ox-5" value="" style="edgeStyle=orthogonalEdgeStyle;rounded=0;orthogonalLoop=1;jettySize=auto;html=1;" edge="1" parent="1" source="2SIb5Jxp2IdRy_dDA1Ox-25" target="2SIb5Jxp2IdRy_dDA1Ox-10">
          <mxGeometry relative="1" as="geometry" />
        </mxCell>
        <mxCell id="2SIb5Jxp2IdRy_dDA1Ox-6" value="Display Main Menu" style="whiteSpace=wrap;html=1;aspect=fixed;fillColor=#cdeb8b;strokeColor=#36393d;" vertex="1" parent="1">
          <mxGeometry x="4060" y="310" width="80" height="80" as="geometry" />
        </mxCell>
        <mxCell id="2SIb5Jxp2IdRy_dDA1Ox-7" style="edgeStyle=orthogonalEdgeStyle;rounded=0;orthogonalLoop=1;jettySize=auto;html=1;" edge="1" parent="1" source="2SIb5Jxp2IdRy_dDA1Ox-10" target="2SIb5Jxp2IdRy_dDA1Ox-21">
          <mxGeometry relative="1" as="geometry" />
        </mxCell>
        <mxCell id="2SIb5Jxp2IdRy_dDA1Ox-8" style="edgeStyle=orthogonalEdgeStyle;rounded=0;orthogonalLoop=1;jettySize=auto;html=1;entryX=1;entryY=0.5;entryDx=0;entryDy=0;" edge="1" parent="1" source="2SIb5Jxp2IdRy_dDA1Ox-10" target="2SIb5Jxp2IdRy_dDA1Ox-27">
          <mxGeometry relative="1" as="geometry">
            <Array as="points">
              <mxPoint x="2850" y="640" />
            </Array>
          </mxGeometry>
        </mxCell>
        <mxCell id="2SIb5Jxp2IdRy_dDA1Ox-9" style="edgeStyle=orthogonalEdgeStyle;rounded=0;orthogonalLoop=1;jettySize=auto;html=1;" edge="1" parent="1">
          <mxGeometry relative="1" as="geometry">
            <mxPoint x="3900" y="580" as="targetPoint" />
            <mxPoint x="4060" y="580.0769230769229" as="sourcePoint" />
            <Array as="points">
              <mxPoint x="3990" y="580" />
              <mxPoint x="3900" y="581" />
            </Array>
          </mxGeometry>
        </mxCell>
        <mxCell id="2SIb5Jxp2IdRy_dDA1Ox-10" value="User Input Choice" style="whiteSpace=wrap;html=1;aspect=fixed;fillColor=#e1d5e7;strokeColor=#9673a6;" vertex="1" parent="1">
          <mxGeometry x="4060" y="570" width="80" height="80" as="geometry" />
        </mxCell>
        <mxCell id="2SIb5Jxp2IdRy_dDA1Ox-11" style="edgeStyle=orthogonalEdgeStyle;rounded=0;orthogonalLoop=1;jettySize=auto;html=1;" edge="1" parent="1" source="2SIb5Jxp2IdRy_dDA1Ox-14">
          <mxGeometry relative="1" as="geometry">
            <mxPoint x="4240" y="1170" as="targetPoint" />
          </mxGeometry>
        </mxCell>
        <mxCell id="2SIb5Jxp2IdRy_dDA1Ox-12" style="edgeStyle=orthogonalEdgeStyle;rounded=0;orthogonalLoop=1;jettySize=auto;html=1;entryX=1;entryY=0.5;entryDx=0;entryDy=0;" edge="1" parent="1" source="2SIb5Jxp2IdRy_dDA1Ox-14" target="2SIb5Jxp2IdRy_dDA1Ox-47">
          <mxGeometry relative="1" as="geometry" />
        </mxCell>
        <mxCell id="2SIb5Jxp2IdRy_dDA1Ox-13" style="edgeStyle=orthogonalEdgeStyle;rounded=0;orthogonalLoop=1;jettySize=auto;html=1;entryX=0.5;entryY=0;entryDx=0;entryDy=0;" edge="1" parent="1" source="2SIb5Jxp2IdRy_dDA1Ox-14" target="2SIb5Jxp2IdRy_dDA1Ox-75">
          <mxGeometry relative="1" as="geometry" />
        </mxCell>
        <mxCell id="2SIb5Jxp2IdRy_dDA1Ox-14" value="User Input Choice" style="whiteSpace=wrap;html=1;aspect=fixed;fillColor=#e1d5e7;strokeColor=#9673a6;" vertex="1" parent="1">
          <mxGeometry x="4060" y="1130" width="80" height="80" as="geometry" />
        </mxCell>
        <mxCell id="2SIb5Jxp2IdRy_dDA1Ox-15" value="" style="edgeStyle=orthogonalEdgeStyle;rounded=0;orthogonalLoop=1;jettySize=auto;html=1;" edge="1" parent="1" source="2SIb5Jxp2IdRy_dDA1Ox-16" target="2SIb5Jxp2IdRy_dDA1Ox-18">
          <mxGeometry relative="1" as="geometry" />
        </mxCell>
        <mxCell id="2SIb5Jxp2IdRy_dDA1Ox-16" value="Update&amp;nbsp;&lt;br&gt;Inventory" style="whiteSpace=wrap;html=1;aspect=fixed;fillColor=#b0e3e6;strokeColor=#0e8088;" vertex="1" parent="1">
          <mxGeometry x="2980" y="1410" width="80" height="80" as="geometry" />
        </mxCell>
        <mxCell id="2SIb5Jxp2IdRy_dDA1Ox-17" style="edgeStyle=orthogonalEdgeStyle;rounded=0;orthogonalLoop=1;jettySize=auto;html=1;entryX=0;entryY=0.5;entryDx=0;entryDy=0;" edge="1" parent="1" source="2SIb5Jxp2IdRy_dDA1Ox-83" target="2SIb5Jxp2IdRy_dDA1Ox-72">
          <mxGeometry relative="1" as="geometry">
            <Array as="points">
              <mxPoint x="2900" y="910" />
            </Array>
          </mxGeometry>
        </mxCell>
        <mxCell id="2SIb5Jxp2IdRy_dDA1Ox-18" value="Update&lt;br&gt;Balance" style="whiteSpace=wrap;html=1;aspect=fixed;fillColor=#b0e3e6;strokeColor=#0e8088;" vertex="1" parent="1">
          <mxGeometry x="2980" y="1540" width="80" height="80" as="geometry" />
        </mxCell>
        <mxCell id="2SIb5Jxp2IdRy_dDA1Ox-19" value="End" style="ellipse;whiteSpace=wrap;html=1;aspect=fixed;fillColor=#eeeeee;strokeColor=#36393d;" vertex="1" parent="1">
          <mxGeometry x="4060" y="1760" width="80" height="80" as="geometry" />
        </mxCell>
        <mxCell id="2SIb5Jxp2IdRy_dDA1Ox-20" style="edgeStyle=orthogonalEdgeStyle;rounded=0;orthogonalLoop=1;jettySize=auto;html=1;entryX=0.5;entryY=1;entryDx=0;entryDy=0;" edge="1" parent="1" source="2SIb5Jxp2IdRy_dDA1Ox-21" target="2SIb5Jxp2IdRy_dDA1Ox-23">
          <mxGeometry relative="1" as="geometry" />
        </mxCell>
        <mxCell id="2SIb5Jxp2IdRy_dDA1Ox-21" value="Display Vending Machine Items&lt;br&gt;" style="whiteSpace=wrap;html=1;aspect=fixed;fillColor=#cdeb8b;strokeColor=#36393d;" vertex="1" parent="1">
          <mxGeometry x="4310" y="570" width="80" height="80" as="geometry" />
        </mxCell>
        <mxCell id="2SIb5Jxp2IdRy_dDA1Ox-22" style="edgeStyle=orthogonalEdgeStyle;rounded=0;orthogonalLoop=1;jettySize=auto;html=1;entryX=0.833;entryY=0.333;entryDx=0;entryDy=0;entryPerimeter=0;" edge="1" parent="1" source="2SIb5Jxp2IdRy_dDA1Ox-23" target="2SIb5Jxp2IdRy_dDA1Ox-25">
          <mxGeometry relative="1" as="geometry">
            <mxPoint x="4120" y="610" as="targetPoint" />
          </mxGeometry>
        </mxCell>
        <mxCell id="2SIb5Jxp2IdRy_dDA1Ox-23" value="User Input: Back&amp;nbsp;" style="whiteSpace=wrap;html=1;aspect=fixed;fillColor=#e1d5e7;strokeColor=#9673a6;" vertex="1" parent="1">
          <mxGeometry x="4310" y="420" width="80" height="80" as="geometry" />
        </mxCell>
        <mxCell id="2SIb5Jxp2IdRy_dDA1Ox-24" value="" style="edgeStyle=orthogonalEdgeStyle;rounded=0;orthogonalLoop=1;jettySize=auto;html=1;" edge="1" parent="1" source="2SIb5Jxp2IdRy_dDA1Ox-6" target="2SIb5Jxp2IdRy_dDA1Ox-25">
          <mxGeometry relative="1" as="geometry">
            <mxPoint x="4100" y="600" as="sourcePoint" />
            <mxPoint x="4100" y="710" as="targetPoint" />
          </mxGeometry>
        </mxCell>
        <mxCell id="2SIb5Jxp2IdRy_dDA1Ox-25" value="" style="ellipse;whiteSpace=wrap;html=1;aspect=fixed;" vertex="1" parent="1">
          <mxGeometry x="4085" y="450" width="30" height="30" as="geometry" />
        </mxCell>
        <mxCell id="2SIb5Jxp2IdRy_dDA1Ox-26" style="edgeStyle=orthogonalEdgeStyle;rounded=0;orthogonalLoop=1;jettySize=auto;html=1;entryX=0;entryY=0.5;entryDx=0;entryDy=0;" edge="1" parent="1" source="2SIb5Jxp2IdRy_dDA1Ox-27" target="2SIb5Jxp2IdRy_dDA1Ox-19">
          <mxGeometry relative="1" as="geometry">
            <mxPoint x="2780" y="1880" as="targetPoint" />
            <Array as="points">
              <mxPoint x="2740" y="1800" />
            </Array>
          </mxGeometry>
        </mxCell>
        <mxCell id="2SIb5Jxp2IdRy_dDA1Ox-27" value="Exit&amp;nbsp;" style="whiteSpace=wrap;html=1;aspect=fixed;fillColor=#cdeb8b;strokeColor=#36393d;" vertex="1" parent="1">
          <mxGeometry x="2710" y="600" width="80" height="80" as="geometry" />
        </mxCell>
        <mxCell id="2SIb5Jxp2IdRy_dDA1Ox-28" value="Option 1" style="text;html=1;align=center;verticalAlign=middle;resizable=0;points=[];autosize=1;strokeColor=none;fillColor=none;" vertex="1" parent="1">
          <mxGeometry x="4175" y="570" width="70" height="30" as="geometry" />
        </mxCell>
        <mxCell id="2SIb5Jxp2IdRy_dDA1Ox-29" value="Option 3" style="text;html=1;align=center;verticalAlign=middle;resizable=0;points=[];autosize=1;strokeColor=none;fillColor=none;" vertex="1" parent="1">
          <mxGeometry x="3960" y="640" width="70" height="30" as="geometry" />
        </mxCell>
        <mxCell id="2SIb5Jxp2IdRy_dDA1Ox-30" value="Option 2" style="text;html=1;align=center;verticalAlign=middle;resizable=0;points=[];autosize=1;strokeColor=none;fillColor=none;" vertex="1" parent="1">
          <mxGeometry x="4105" y="690" width="70" height="30" as="geometry" />
        </mxCell>
        <mxCell id="2SIb5Jxp2IdRy_dDA1Ox-31" value="" style="edgeStyle=orthogonalEdgeStyle;rounded=0;orthogonalLoop=1;jettySize=auto;html=1;" edge="1" parent="1" source="2SIb5Jxp2IdRy_dDA1Ox-10" target="2SIb5Jxp2IdRy_dDA1Ox-33">
          <mxGeometry relative="1" as="geometry">
            <mxPoint x="4100" y="790" as="sourcePoint" />
            <mxPoint x="4100" y="1040" as="targetPoint" />
          </mxGeometry>
        </mxCell>
        <mxCell id="2SIb5Jxp2IdRy_dDA1Ox-32" value="" style="edgeStyle=orthogonalEdgeStyle;rounded=0;orthogonalLoop=1;jettySize=auto;html=1;" edge="1" parent="1" source="2SIb5Jxp2IdRy_dDA1Ox-72" target="2SIb5Jxp2IdRy_dDA1Ox-35">
          <mxGeometry relative="1" as="geometry" />
        </mxCell>
        <mxCell id="2SIb5Jxp2IdRy_dDA1Ox-33" value="Purchase Item" style="whiteSpace=wrap;html=1;aspect=fixed;fillColor=#cdeb8b;strokeColor=#36393d;" vertex="1" parent="1">
          <mxGeometry x="4060" y="750" width="80" height="80" as="geometry" />
        </mxCell>
        <mxCell id="2SIb5Jxp2IdRy_dDA1Ox-34" value="" style="edgeStyle=orthogonalEdgeStyle;rounded=0;orthogonalLoop=1;jettySize=auto;html=1;" edge="1" parent="1" source="2SIb5Jxp2IdRy_dDA1Ox-35" target="2SIb5Jxp2IdRy_dDA1Ox-14">
          <mxGeometry relative="1" as="geometry" />
        </mxCell>
        <mxCell id="2SIb5Jxp2IdRy_dDA1Ox-35" value="Display Purchasing Process Menu" style="whiteSpace=wrap;html=1;aspect=fixed;fillColor=#cdeb8b;strokeColor=#36393d;" vertex="1" parent="1">
          <mxGeometry x="4060" y="990" width="80" height="80" as="geometry" />
        </mxCell>
        <mxCell id="2SIb5Jxp2IdRy_dDA1Ox-36" style="edgeStyle=orthogonalEdgeStyle;rounded=0;orthogonalLoop=1;jettySize=auto;html=1;entryX=0;entryY=0.5;entryDx=0;entryDy=0;" edge="1" parent="1" source="2SIb5Jxp2IdRy_dDA1Ox-38" target="2SIb5Jxp2IdRy_dDA1Ox-41">
          <mxGeometry relative="1" as="geometry" />
        </mxCell>
        <mxCell id="2SIb5Jxp2IdRy_dDA1Ox-37" style="edgeStyle=orthogonalEdgeStyle;rounded=0;orthogonalLoop=1;jettySize=auto;html=1;" edge="1" parent="1" source="2SIb5Jxp2IdRy_dDA1Ox-38" target="2SIb5Jxp2IdRy_dDA1Ox-101">
          <mxGeometry relative="1" as="geometry" />
        </mxCell>
        <mxCell id="2SIb5Jxp2IdRy_dDA1Ox-38" value="Display &quot;Provide Money&quot;" style="whiteSpace=wrap;html=1;aspect=fixed;fillColor=#cdeb8b;strokeColor=#36393d;" vertex="1" parent="1">
          <mxGeometry x="4220" y="1130" width="80" height="80" as="geometry" />
        </mxCell>
        <mxCell id="2SIb5Jxp2IdRy_dDA1Ox-39" value="Option 1" style="text;html=1;align=center;verticalAlign=middle;resizable=0;points=[];autosize=1;strokeColor=none;fillColor=none;" vertex="1" parent="1">
          <mxGeometry x="4150" y="1135" width="70" height="30" as="geometry" />
        </mxCell>
        <mxCell id="2SIb5Jxp2IdRy_dDA1Ox-40" style="edgeStyle=orthogonalEdgeStyle;rounded=0;orthogonalLoop=1;jettySize=auto;html=1;" edge="1" parent="1" source="2SIb5Jxp2IdRy_dDA1Ox-41" target="2SIb5Jxp2IdRy_dDA1Ox-79">
          <mxGeometry relative="1" as="geometry" />
        </mxCell>
        <mxCell id="2SIb5Jxp2IdRy_dDA1Ox-41" value="User Inputs Money" style="whiteSpace=wrap;html=1;aspect=fixed;fillColor=#e1d5e7;strokeColor=#9673a6;" vertex="1" parent="1">
          <mxGeometry x="4400" y="1130" width="80" height="80" as="geometry" />
        </mxCell>
        <mxCell id="2SIb5Jxp2IdRy_dDA1Ox-42" style="edgeStyle=orthogonalEdgeStyle;rounded=0;orthogonalLoop=1;jettySize=auto;html=1;entryX=1;entryY=0.5;entryDx=0;entryDy=0;" edge="1" parent="1" source="2SIb5Jxp2IdRy_dDA1Ox-43" target="2SIb5Jxp2IdRy_dDA1Ox-50">
          <mxGeometry relative="1" as="geometry" />
        </mxCell>
        <mxCell id="2SIb5Jxp2IdRy_dDA1Ox-43" value="Select Product" style="whiteSpace=wrap;html=1;aspect=fixed;fillColor=#e1d5e7;strokeColor=#9673a6;" vertex="1" parent="1">
          <mxGeometry x="3670" y="1130" width="80" height="80" as="geometry" />
        </mxCell>
        <mxCell id="2SIb5Jxp2IdRy_dDA1Ox-44" value="Option 2" style="text;html=1;align=center;verticalAlign=middle;resizable=0;points=[];autosize=1;strokeColor=none;fillColor=none;" vertex="1" parent="1">
          <mxGeometry x="3980" y="1135" width="70" height="30" as="geometry" />
        </mxCell>
        <mxCell id="2SIb5Jxp2IdRy_dDA1Ox-45" style="edgeStyle=orthogonalEdgeStyle;rounded=0;orthogonalLoop=1;jettySize=auto;html=1;entryX=1;entryY=0.5;entryDx=0;entryDy=0;" edge="1" parent="1" source="2SIb5Jxp2IdRy_dDA1Ox-47" target="2SIb5Jxp2IdRy_dDA1Ox-43">
          <mxGeometry relative="1" as="geometry">
            <mxPoint x="3810" y="1170" as="targetPoint" />
          </mxGeometry>
        </mxCell>
        <mxCell id="2SIb5Jxp2IdRy_dDA1Ox-46" style="edgeStyle=orthogonalEdgeStyle;rounded=0;orthogonalLoop=1;jettySize=auto;html=1;entryX=0.5;entryY=1;entryDx=0;entryDy=0;" edge="1" parent="1" source="2SIb5Jxp2IdRy_dDA1Ox-47" target="2SIb5Jxp2IdRy_dDA1Ox-99">
          <mxGeometry relative="1" as="geometry" />
        </mxCell>
        <mxCell id="2SIb5Jxp2IdRy_dDA1Ox-47" value="Display Products Available" style="whiteSpace=wrap;html=1;aspect=fixed;fillColor=#cdeb8b;strokeColor=#36393d;" vertex="1" parent="1">
          <mxGeometry x="3880" y="1130" width="80" height="80" as="geometry" />
        </mxCell>
        <mxCell id="2SIb5Jxp2IdRy_dDA1Ox-48" style="edgeStyle=orthogonalEdgeStyle;rounded=0;orthogonalLoop=1;jettySize=auto;html=1;entryX=0.5;entryY=1;entryDx=0;entryDy=0;" edge="1" parent="1" source="2SIb5Jxp2IdRy_dDA1Ox-50" target="2SIb5Jxp2IdRy_dDA1Ox-56">
          <mxGeometry relative="1" as="geometry" />
        </mxCell>
        <mxCell id="2SIb5Jxp2IdRy_dDA1Ox-49" style="edgeStyle=orthogonalEdgeStyle;rounded=0;orthogonalLoop=1;jettySize=auto;html=1;entryX=1;entryY=0.5;entryDx=0;entryDy=0;" edge="1" parent="1" source="2SIb5Jxp2IdRy_dDA1Ox-50" target="2SIb5Jxp2IdRy_dDA1Ox-54">
          <mxGeometry relative="1" as="geometry" />
        </mxCell>
        <mxCell id="2SIb5Jxp2IdRy_dDA1Ox-50" value="Is&amp;nbsp;&lt;br&gt;Selection&lt;br&gt;Valid?" style="rhombus;whiteSpace=wrap;html=1;fillColor=#ffcc99;strokeColor=#36393d;" vertex="1" parent="1">
          <mxGeometry x="3560" y="1130" width="80" height="80" as="geometry" />
        </mxCell>
        <mxCell id="2SIb5Jxp2IdRy_dDA1Ox-51" value="No" style="text;html=1;align=center;verticalAlign=middle;resizable=0;points=[];autosize=1;strokeColor=none;fillColor=none;" vertex="1" parent="1">
          <mxGeometry x="3600" y="1105" width="40" height="30" as="geometry" />
        </mxCell>
        <mxCell id="2SIb5Jxp2IdRy_dDA1Ox-52" value="" style="edgeStyle=orthogonalEdgeStyle;rounded=0;orthogonalLoop=1;jettySize=auto;html=1;" edge="1" parent="1" source="2SIb5Jxp2IdRy_dDA1Ox-54" target="2SIb5Jxp2IdRy_dDA1Ox-96">
          <mxGeometry relative="1" as="geometry" />
        </mxCell>
        <mxCell id="2SIb5Jxp2IdRy_dDA1Ox-53" style="edgeStyle=orthogonalEdgeStyle;rounded=0;orthogonalLoop=1;jettySize=auto;html=1;entryX=1;entryY=0.5;entryDx=0;entryDy=0;" edge="1" parent="1" source="2SIb5Jxp2IdRy_dDA1Ox-54" target="2SIb5Jxp2IdRy_dDA1Ox-59">
          <mxGeometry relative="1" as="geometry">
            <mxPoint x="3080" y="1170" as="targetPoint" />
          </mxGeometry>
        </mxCell>
        <mxCell id="2SIb5Jxp2IdRy_dDA1Ox-54" value="Is product &lt;br&gt;sold out?" style="rhombus;whiteSpace=wrap;html=1;fillColor=#ffcc99;strokeColor=#36393d;" vertex="1" parent="1">
          <mxGeometry x="3275" y="1125" width="90" height="90" as="geometry" />
        </mxCell>
        <mxCell id="2SIb5Jxp2IdRy_dDA1Ox-55" value="Yes" style="text;html=1;align=center;verticalAlign=middle;resizable=0;points=[];autosize=1;strokeColor=none;fillColor=none;" vertex="1" parent="1">
          <mxGeometry x="3390" y="1142.5" width="40" height="30" as="geometry" />
        </mxCell>
        <mxCell id="2SIb5Jxp2IdRy_dDA1Ox-56" value="" style="ellipse;whiteSpace=wrap;html=1;aspect=fixed;" vertex="1" parent="1">
          <mxGeometry x="3580" y="961.25" width="25" height="25" as="geometry" />
        </mxCell>
        <mxCell id="2SIb5Jxp2IdRy_dDA1Ox-57" value="" style="edgeStyle=orthogonalEdgeStyle;rounded=0;orthogonalLoop=1;jettySize=auto;html=1;" edge="1" parent="1" source="2SIb5Jxp2IdRy_dDA1Ox-59" target="2SIb5Jxp2IdRy_dDA1Ox-69">
          <mxGeometry relative="1" as="geometry" />
        </mxCell>
        <mxCell id="2SIb5Jxp2IdRy_dDA1Ox-58" style="edgeStyle=orthogonalEdgeStyle;rounded=0;orthogonalLoop=1;jettySize=auto;html=1;entryX=0.5;entryY=1;entryDx=0;entryDy=0;" edge="1" parent="1" source="2SIb5Jxp2IdRy_dDA1Ox-59" target="2SIb5Jxp2IdRy_dDA1Ox-94">
          <mxGeometry relative="1" as="geometry" />
        </mxCell>
        <mxCell id="2SIb5Jxp2IdRy_dDA1Ox-59" value="Is balance &amp;gt;=&lt;br&gt;product cost" style="rhombus;whiteSpace=wrap;html=1;fillColor=#ffcc99;strokeColor=#36393d;" vertex="1" parent="1">
          <mxGeometry x="2970" y="1118.75" width="100" height="102.5" as="geometry" />
        </mxCell>
        <mxCell id="2SIb5Jxp2IdRy_dDA1Ox-60" style="edgeStyle=orthogonalEdgeStyle;rounded=0;orthogonalLoop=1;jettySize=auto;html=1;entryX=0;entryY=0.5;entryDx=0;entryDy=0;" edge="1" parent="1" source="2SIb5Jxp2IdRy_dDA1Ox-61" target="2SIb5Jxp2IdRy_dDA1Ox-81">
          <mxGeometry relative="1" as="geometry" />
        </mxCell>
        <mxCell id="2SIb5Jxp2IdRy_dDA1Ox-61" value="Return Money" style="whiteSpace=wrap;html=1;aspect=fixed;fillColor=#cdeb8b;strokeColor=#36393d;" vertex="1" parent="1">
          <mxGeometry x="4280" y="1300" width="80" height="80" as="geometry" />
        </mxCell>
        <mxCell id="2SIb5Jxp2IdRy_dDA1Ox-62" value="No" style="text;html=1;align=center;verticalAlign=middle;resizable=0;points=[];autosize=1;strokeColor=none;fillColor=none;" vertex="1" parent="1">
          <mxGeometry x="3010" y="1087.5" width="40" height="30" as="geometry" />
        </mxCell>
        <mxCell id="2SIb5Jxp2IdRy_dDA1Ox-63" value="No" style="text;html=1;align=center;verticalAlign=middle;resizable=0;points=[];autosize=1;strokeColor=none;fillColor=none;" vertex="1" parent="1">
          <mxGeometry x="3140" y="1142.5" width="40" height="30" as="geometry" />
        </mxCell>
        <mxCell id="2SIb5Jxp2IdRy_dDA1Ox-64" value="" style="edgeStyle=orthogonalEdgeStyle;rounded=0;orthogonalLoop=1;jettySize=auto;html=1;entryX=0;entryY=0.5;entryDx=0;entryDy=0;" edge="1" parent="1" source="2SIb5Jxp2IdRy_dDA1Ox-56" target="2SIb5Jxp2IdRy_dDA1Ox-66">
          <mxGeometry relative="1" as="geometry">
            <mxPoint x="3615" y="1000" as="sourcePoint" />
            <mxPoint x="4060" y="1000" as="targetPoint" />
            <Array as="points" />
          </mxGeometry>
        </mxCell>
        <mxCell id="2SIb5Jxp2IdRy_dDA1Ox-65" style="edgeStyle=orthogonalEdgeStyle;rounded=0;orthogonalLoop=1;jettySize=auto;html=1;" edge="1" parent="1" source="2SIb5Jxp2IdRy_dDA1Ox-66">
          <mxGeometry relative="1" as="geometry">
            <mxPoint x="3920" y="910" as="targetPoint" />
          </mxGeometry>
        </mxCell>
        <mxCell id="2SIb5Jxp2IdRy_dDA1Ox-66" value="Return to Purchasing Product Menu" style="whiteSpace=wrap;html=1;aspect=fixed;fillColor=#f8cecc;strokeColor=#b85450;gradientColor=#ea6b66;" vertex="1" parent="1">
          <mxGeometry x="3880" y="933.75" width="80" height="80" as="geometry" />
        </mxCell>
        <mxCell id="2SIb5Jxp2IdRy_dDA1Ox-67" value="Selection Invalid" style="whiteSpace=wrap;html=1;aspect=fixed;fillColor=#cdeb8b;strokeColor=#36393d;" vertex="1" parent="1">
          <mxGeometry x="3560" y="1020" width="80" height="80" as="geometry" />
        </mxCell>
        <mxCell id="2SIb5Jxp2IdRy_dDA1Ox-68" value="" style="edgeStyle=orthogonalEdgeStyle;rounded=0;orthogonalLoop=1;jettySize=auto;html=1;" edge="1" parent="1" source="2SIb5Jxp2IdRy_dDA1Ox-69" target="2SIb5Jxp2IdRy_dDA1Ox-16">
          <mxGeometry relative="1" as="geometry" />
        </mxCell>
        <mxCell id="2SIb5Jxp2IdRy_dDA1Ox-69" value="Dispense&lt;br&gt;Item" style="whiteSpace=wrap;html=1;aspect=fixed;fillColor=#cdeb8b;strokeColor=#36393d;" vertex="1" parent="1">
          <mxGeometry x="2980" y="1275" width="80" height="80" as="geometry" />
        </mxCell>
        <mxCell id="2SIb5Jxp2IdRy_dDA1Ox-70" value="Yes" style="text;html=1;align=center;verticalAlign=middle;resizable=0;points=[];autosize=1;strokeColor=none;fillColor=none;" vertex="1" parent="1">
          <mxGeometry x="3020" y="1222.5" width="40" height="30" as="geometry" />
        </mxCell>
        <mxCell id="2SIb5Jxp2IdRy_dDA1Ox-71" value="" style="edgeStyle=orthogonalEdgeStyle;rounded=0;orthogonalLoop=1;jettySize=auto;html=1;" edge="1" parent="1" source="2SIb5Jxp2IdRy_dDA1Ox-33" target="2SIb5Jxp2IdRy_dDA1Ox-72">
          <mxGeometry relative="1" as="geometry">
            <mxPoint x="4100" y="830" as="sourcePoint" />
            <mxPoint x="4100" y="990" as="targetPoint" />
          </mxGeometry>
        </mxCell>
        <mxCell id="2SIb5Jxp2IdRy_dDA1Ox-72" value="" style="ellipse;whiteSpace=wrap;html=1;aspect=fixed;" vertex="1" parent="1">
          <mxGeometry x="4080" y="890" width="40" height="40" as="geometry" />
        </mxCell>
        <mxCell id="2SIb5Jxp2IdRy_dDA1Ox-73" style="edgeStyle=orthogonalEdgeStyle;rounded=0;orthogonalLoop=1;jettySize=auto;html=1;entryX=0;entryY=0.5;entryDx=0;entryDy=0;" edge="1" parent="1" source="2SIb5Jxp2IdRy_dDA1Ox-75" target="2SIb5Jxp2IdRy_dDA1Ox-61">
          <mxGeometry relative="1" as="geometry" />
        </mxCell>
        <mxCell id="2SIb5Jxp2IdRy_dDA1Ox-74" style="edgeStyle=orthogonalEdgeStyle;rounded=0;orthogonalLoop=1;jettySize=auto;html=1;entryX=0.5;entryY=0;entryDx=0;entryDy=0;" edge="1" parent="1" source="2SIb5Jxp2IdRy_dDA1Ox-75" target="2SIb5Jxp2IdRy_dDA1Ox-19">
          <mxGeometry relative="1" as="geometry" />
        </mxCell>
        <mxCell id="2SIb5Jxp2IdRy_dDA1Ox-75" value="Finish Transaction" style="whiteSpace=wrap;html=1;aspect=fixed;fillColor=#cdeb8b;strokeColor=#36393d;" vertex="1" parent="1">
          <mxGeometry x="4060" y="1300" width="80" height="80" as="geometry" />
        </mxCell>
        <mxCell id="2SIb5Jxp2IdRy_dDA1Ox-76" value="Option 3" style="text;html=1;align=center;verticalAlign=middle;resizable=0;points=[];autosize=1;strokeColor=none;fillColor=none;" vertex="1" parent="1">
          <mxGeometry x="4105" y="1230" width="70" height="30" as="geometry" />
        </mxCell>
        <mxCell id="2SIb5Jxp2IdRy_dDA1Ox-77" value="" style="ellipse;whiteSpace=wrap;html=1;aspect=fixed;" vertex="1" parent="1">
          <mxGeometry x="4085" y="150" width="30" height="30" as="geometry" />
        </mxCell>
        <mxCell id="2SIb5Jxp2IdRy_dDA1Ox-78" style="edgeStyle=orthogonalEdgeStyle;rounded=0;orthogonalLoop=1;jettySize=auto;html=1;entryX=1;entryY=0.5;entryDx=0;entryDy=0;" edge="1" parent="1" source="2SIb5Jxp2IdRy_dDA1Ox-79" target="2SIb5Jxp2IdRy_dDA1Ox-72">
          <mxGeometry relative="1" as="geometry">
            <Array as="points">
              <mxPoint x="4340" y="910" />
            </Array>
          </mxGeometry>
        </mxCell>
        <mxCell id="2SIb5Jxp2IdRy_dDA1Ox-79" value="Log Money Feed" style="whiteSpace=wrap;html=1;aspect=fixed;fillColor=#f8cecc;strokeColor=#b85450;gradientColor=#ea6b66;" vertex="1" parent="1">
          <mxGeometry x="4400" y="870" width="80" height="80" as="geometry" />
        </mxCell>
        <mxCell id="2SIb5Jxp2IdRy_dDA1Ox-80" style="edgeStyle=orthogonalEdgeStyle;rounded=0;orthogonalLoop=1;jettySize=auto;html=1;entryX=1;entryY=0.5;entryDx=0;entryDy=0;" edge="1" parent="1" source="2SIb5Jxp2IdRy_dDA1Ox-81" target="2SIb5Jxp2IdRy_dDA1Ox-77">
          <mxGeometry relative="1" as="geometry">
            <Array as="points">
              <mxPoint x="4565" y="165" />
            </Array>
          </mxGeometry>
        </mxCell>
        <mxCell id="2SIb5Jxp2IdRy_dDA1Ox-81" value="Log Change Given" style="whiteSpace=wrap;html=1;aspect=fixed;fillColor=#f8cecc;strokeColor=#b85450;gradientColor=#ea6b66;" vertex="1" parent="1">
          <mxGeometry x="4525" y="1300" width="80" height="80" as="geometry" />
        </mxCell>
        <mxCell id="2SIb5Jxp2IdRy_dDA1Ox-82" value="" style="edgeStyle=orthogonalEdgeStyle;rounded=0;orthogonalLoop=1;jettySize=auto;html=1;entryX=0;entryY=0.5;entryDx=0;entryDy=0;" edge="1" parent="1" source="2SIb5Jxp2IdRy_dDA1Ox-85" target="2SIb5Jxp2IdRy_dDA1Ox-83">
          <mxGeometry relative="1" as="geometry">
            <mxPoint x="2980" y="1580" as="sourcePoint" />
            <mxPoint x="4080" y="910" as="targetPoint" />
            <Array as="points" />
          </mxGeometry>
        </mxCell>
        <mxCell id="2SIb5Jxp2IdRy_dDA1Ox-83" value="Add to total sales" style="whiteSpace=wrap;html=1;aspect=fixed;fillColor=#f8cecc;strokeColor=#b85450;gradientColor=#ea6b66;" vertex="1" parent="1">
          <mxGeometry x="3660" y="870" width="80" height="80" as="geometry" />
        </mxCell>
        <mxCell id="2SIb5Jxp2IdRy_dDA1Ox-84" value="" style="edgeStyle=orthogonalEdgeStyle;rounded=0;orthogonalLoop=1;jettySize=auto;html=1;entryX=0;entryY=0.5;entryDx=0;entryDy=0;" edge="1" parent="1" source="2SIb5Jxp2IdRy_dDA1Ox-18" target="2SIb5Jxp2IdRy_dDA1Ox-85">
          <mxGeometry relative="1" as="geometry">
            <mxPoint x="2980" y="1580" as="sourcePoint" />
            <mxPoint x="3660" y="910" as="targetPoint" />
            <Array as="points">
              <mxPoint x="2900" y="1580" />
            </Array>
          </mxGeometry>
        </mxCell>
        <mxCell id="2SIb5Jxp2IdRy_dDA1Ox-85" value="Log Sale" style="whiteSpace=wrap;html=1;aspect=fixed;fillColor=#f8cecc;strokeColor=#b85450;gradientColor=#ea6b66;" vertex="1" parent="1">
          <mxGeometry x="3250" y="870" width="80" height="80" as="geometry" />
        </mxCell>
        <mxCell id="2SIb5Jxp2IdRy_dDA1Ox-86" value="Option 4" style="text;whiteSpace=wrap;html=1;" vertex="1" parent="1">
          <mxGeometry x="3960" y="550" width="80" height="40" as="geometry" />
        </mxCell>
        <mxCell id="2SIb5Jxp2IdRy_dDA1Ox-87" style="edgeStyle=orthogonalEdgeStyle;rounded=0;orthogonalLoop=1;jettySize=auto;html=1;entryX=1;entryY=0.5;entryDx=0;entryDy=0;" edge="1" parent="1" source="2SIb5Jxp2IdRy_dDA1Ox-88" target="2SIb5Jxp2IdRy_dDA1Ox-90">
          <mxGeometry relative="1" as="geometry" />
        </mxCell>
        <mxCell id="2SIb5Jxp2IdRy_dDA1Ox-88" value="Create Sales report File" style="whiteSpace=wrap;html=1;aspect=fixed;fillColor=#f8cecc;strokeColor=#b85450;gradientColor=#ea6b66;" vertex="1" parent="1">
          <mxGeometry x="3820" y="540" width="80" height="80" as="geometry" />
        </mxCell>
        <mxCell id="2SIb5Jxp2IdRy_dDA1Ox-89" style="edgeStyle=orthogonalEdgeStyle;rounded=0;orthogonalLoop=1;jettySize=auto;html=1;entryX=0.5;entryY=0;entryDx=0;entryDy=0;" edge="1" parent="1" source="2SIb5Jxp2IdRy_dDA1Ox-90" target="2SIb5Jxp2IdRy_dDA1Ox-91">
          <mxGeometry relative="1" as="geometry" />
        </mxCell>
        <mxCell id="2SIb5Jxp2IdRy_dDA1Ox-90" value="Write sales report final" style="whiteSpace=wrap;html=1;aspect=fixed;fillColor=#f8cecc;strokeColor=#b85450;gradientColor=#ea6b66;" vertex="1" parent="1">
          <mxGeometry x="3615" y="540" width="80" height="80" as="geometry" />
        </mxCell>
        <mxCell id="2SIb5Jxp2IdRy_dDA1Ox-91" value="" style="ellipse;whiteSpace=wrap;html=1;aspect=fixed;" vertex="1" parent="1">
          <mxGeometry x="3090" y="630" width="30" height="30" as="geometry" />
        </mxCell>
        <mxCell id="2SIb5Jxp2IdRy_dDA1Ox-92" value="Yes" style="text;html=1;align=center;verticalAlign=middle;resizable=0;points=[];autosize=1;strokeColor=none;fillColor=none;" vertex="1" parent="1">
          <mxGeometry x="3330" y="1100" width="40" height="30" as="geometry" />
        </mxCell>
        <mxCell id="2SIb5Jxp2IdRy_dDA1Ox-93" style="edgeStyle=orthogonalEdgeStyle;rounded=0;orthogonalLoop=1;jettySize=auto;html=1;" edge="1" parent="1" source="2SIb5Jxp2IdRy_dDA1Ox-94">
          <mxGeometry relative="1" as="geometry">
            <mxPoint x="3580" y="970" as="targetPoint" />
            <Array as="points">
              <mxPoint x="3020" y="970" />
            </Array>
          </mxGeometry>
        </mxCell>
        <mxCell id="2SIb5Jxp2IdRy_dDA1Ox-94" value="Please give us more money" style="whiteSpace=wrap;html=1;aspect=fixed;fillColor=#cdeb8b;strokeColor=#36393d;" vertex="1" parent="1">
          <mxGeometry x="2980" y="1000" width="80" height="80" as="geometry" />
        </mxCell>
        <mxCell id="2SIb5Jxp2IdRy_dDA1Ox-95" style="edgeStyle=orthogonalEdgeStyle;rounded=0;orthogonalLoop=1;jettySize=auto;html=1;" edge="1" parent="1" source="2SIb5Jxp2IdRy_dDA1Ox-96">
          <mxGeometry relative="1" as="geometry">
            <mxPoint x="3320" y="970" as="targetPoint" />
          </mxGeometry>
        </mxCell>
        <mxCell id="2SIb5Jxp2IdRy_dDA1Ox-96" value="Product Sold out, make another selection" style="whiteSpace=wrap;html=1;aspect=fixed;fillColor=#cdeb8b;strokeColor=#36393d;" vertex="1" parent="1">
          <mxGeometry x="3280" y="1015" width="80" height="80" as="geometry" />
        </mxCell>
        <mxCell id="2SIb5Jxp2IdRy_dDA1Ox-97" value="Stock Inventory" style="whiteSpace=wrap;html=1;aspect=fixed;fillColor=#f8cecc;strokeColor=#b85450;gradientColor=#ea6b66;" vertex="1" parent="1">
          <mxGeometry x="4060" y="40" width="80" height="80" as="geometry" />
        </mxCell>
        <mxCell id="2SIb5Jxp2IdRy_dDA1Ox-98" style="edgeStyle=orthogonalEdgeStyle;rounded=0;orthogonalLoop=1;jettySize=auto;html=1;" edge="1" parent="1" source="2SIb5Jxp2IdRy_dDA1Ox-99" target="2SIb5Jxp2IdRy_dDA1Ox-66">
          <mxGeometry relative="1" as="geometry" />
        </mxCell>
        <mxCell id="2SIb5Jxp2IdRy_dDA1Ox-99" value="User Input: Back&amp;nbsp;" style="whiteSpace=wrap;html=1;aspect=fixed;fillColor=#e1d5e7;strokeColor=#9673a6;" vertex="1" parent="1">
          <mxGeometry x="3880" y="1030" width="80" height="80" as="geometry" />
        </mxCell>
        <mxCell id="2SIb5Jxp2IdRy_dDA1Ox-100" style="edgeStyle=orthogonalEdgeStyle;rounded=0;orthogonalLoop=1;jettySize=auto;html=1;" edge="1" parent="1" source="2SIb5Jxp2IdRy_dDA1Ox-101">
          <mxGeometry relative="1" as="geometry">
            <mxPoint x="4260" y="910.0000000000005" as="targetPoint" />
          </mxGeometry>
        </mxCell>
        <mxCell id="2SIb5Jxp2IdRy_dDA1Ox-101" value="User Input: Back&amp;nbsp;" style="whiteSpace=wrap;html=1;aspect=fixed;fillColor=#e1d5e7;strokeColor=#9673a6;" vertex="1" parent="1">
          <mxGeometry x="4220" y="1006" width="80" height="80" as="geometry" />
        </mxCell>
        <mxCell id="2SIb5Jxp2IdRy_dDA1Ox-102" value="Color Key" style="swimlane;fontStyle=0;childLayout=stackLayout;horizontal=1;startSize=30;horizontalStack=0;resizeParent=1;resizeParentMax=0;resizeLast=0;collapsible=1;marginBottom=0;whiteSpace=wrap;html=1;" vertex="1" parent="1">
          <mxGeometry x="2830" y="80" width="140" height="330" as="geometry" />
        </mxCell>
        <mxCell id="2SIb5Jxp2IdRy_dDA1Ox-103" value="Variables" style="text;strokeColor=#6c8ebf;fillColor=#dae8fc;align=left;verticalAlign=middle;spacingLeft=4;spacingRight=4;overflow=hidden;points=[[0,0.5],[1,0.5]];portConstraint=eastwest;rotatable=0;whiteSpace=wrap;html=1;" vertex="1" parent="2SIb5Jxp2IdRy_dDA1Ox-102">
          <mxGeometry y="30" width="140" height="30" as="geometry" />
        </mxCell>
        <mxCell id="2SIb5Jxp2IdRy_dDA1Ox-104" value="Methods" style="text;strokeColor=#82b366;fillColor=#d5e8d4;align=left;verticalAlign=middle;spacingLeft=4;spacingRight=4;overflow=hidden;points=[[0,0.5],[1,0.5]];portConstraint=eastwest;rotatable=0;whiteSpace=wrap;html=1;" vertex="1" parent="2SIb5Jxp2IdRy_dDA1Ox-102">
          <mxGeometry y="60" width="140" height="30" as="geometry" />
        </mxCell>
        <mxCell id="2SIb5Jxp2IdRy_dDA1Ox-105" value="Relationships" style="text;strokeColor=#d6b656;fillColor=#fff2cc;align=left;verticalAlign=middle;spacingLeft=4;spacingRight=4;overflow=hidden;points=[[0,0.5],[1,0.5]];portConstraint=eastwest;rotatable=0;whiteSpace=wrap;html=1;" vertex="1" parent="2SIb5Jxp2IdRy_dDA1Ox-102">
          <mxGeometry y="90" width="140" height="30" as="geometry" />
        </mxCell>
        <mxCell id="2SIb5Jxp2IdRy_dDA1Ox-106" value="If statements/Qs" style="text;strokeColor=#36393d;fillColor=#ffcc99;align=left;verticalAlign=middle;spacingLeft=4;spacingRight=4;overflow=hidden;points=[[0,0.5],[1,0.5]];portConstraint=eastwest;rotatable=0;whiteSpace=wrap;html=1;" vertex="1" parent="2SIb5Jxp2IdRy_dDA1Ox-102">
          <mxGeometry y="120" width="140" height="30" as="geometry" />
        </mxCell>
        <mxCell id="2SIb5Jxp2IdRy_dDA1Ox-107" value="SystemOut/Prompts" style="text;strokeColor=#36393d;fillColor=#cdeb8b;align=left;verticalAlign=middle;spacingLeft=4;spacingRight=4;overflow=hidden;points=[[0,0.5],[1,0.5]];portConstraint=eastwest;rotatable=0;whiteSpace=wrap;html=1;" vertex="1" parent="2SIb5Jxp2IdRy_dDA1Ox-102">
          <mxGeometry y="150" width="140" height="30" as="geometry" />
        </mxCell>
        <mxCell id="2SIb5Jxp2IdRy_dDA1Ox-108" value="User Input" style="text;strokeColor=#9673a6;fillColor=#e1d5e7;align=left;verticalAlign=middle;spacingLeft=4;spacingRight=4;overflow=hidden;points=[[0,0.5],[1,0.5]];portConstraint=eastwest;rotatable=0;whiteSpace=wrap;html=1;" vertex="1" parent="2SIb5Jxp2IdRy_dDA1Ox-102">
          <mxGeometry y="180" width="140" height="30" as="geometry" />
        </mxCell>
        <mxCell id="2SIb5Jxp2IdRy_dDA1Ox-109" value="Action" style="text;align=left;verticalAlign=middle;spacingLeft=4;spacingRight=4;overflow=hidden;points=[[0,0.5],[1,0.5]];portConstraint=eastwest;rotatable=0;whiteSpace=wrap;html=1;fillColor=#f8cecc;strokeColor=#b85450;gradientColor=#ea6b66;" vertex="1" parent="2SIb5Jxp2IdRy_dDA1Ox-102">
          <mxGeometry y="210" width="140" height="30" as="geometry" />
        </mxCell>
        <mxCell id="2SIb5Jxp2IdRy_dDA1Ox-110" value="Instantiation" style="text;strokeColor=#B09500;fillColor=#e3c800;align=left;verticalAlign=middle;spacingLeft=4;spacingRight=4;overflow=hidden;points=[[0,0.5],[1,0.5]];portConstraint=eastwest;rotatable=0;whiteSpace=wrap;html=1;fontColor=#000000;" vertex="1" parent="2SIb5Jxp2IdRy_dDA1Ox-102">
          <mxGeometry y="240" width="140" height="30" as="geometry" />
        </mxCell>
        <mxCell id="2SIb5Jxp2IdRy_dDA1Ox-111" value="File Writing&amp;nbsp;" style="text;strokeColor=#0e8088;fillColor=#b0e3e6;align=left;verticalAlign=middle;spacingLeft=4;spacingRight=4;overflow=hidden;points=[[0,0.5],[1,0.5]];portConstraint=eastwest;rotatable=0;whiteSpace=wrap;html=1;" vertex="1" parent="2SIb5Jxp2IdRy_dDA1Ox-102">
          <mxGeometry y="270" width="140" height="30" as="geometry" />
        </mxCell>
        <mxCell id="2SIb5Jxp2IdRy_dDA1Ox-112" value="Constructors" style="text;strokeColor=#23445d;fillColor=#bac8d3;align=left;verticalAlign=middle;spacingLeft=4;spacingRight=4;overflow=hidden;points=[[0,0.5],[1,0.5]];portConstraint=eastwest;rotatable=0;whiteSpace=wrap;html=1;" vertex="1" parent="2SIb5Jxp2IdRy_dDA1Ox-102">
          <mxGeometry y="300" width="140" height="30" as="geometry" />
        </mxCell>
      </root>
    </mxGraphModel>
  </diagram>
</mxfile>
